<?xml version="1.0" standalone="no"?>
<!DOCTYPE svg PUBLIC "-//W3C//DTD SVG 20010904//EN"
 "http://www.w3.org/TR/2001/REC-SVG-20010904/DTD/svg10.dtd">
<svg version="1.0" xmlns="http://www.w3.org/2000/svg"
 width="368.000000pt" height="485.000000pt" viewBox="0 0 368.000000 485.000000"
 preserveAspectRatio="xMidYMid meet">

<g transform="translate(0.000000,485.000000) scale(0.100000,-0.100000)"
fill="#000000" stroke="none">
<path d="M21 4834 c0 -11 3 -14 6 -6 3 7 2 16 -1 19 -3 4 -6 -2 -5 -13z"/>
<path d="M50 4840 c0 -5 7 -10 15 -10 8 0 15 5 15 10 0 6 -7 10 -15 10 -8 0
-15 -4 -15 -10z"/>
<path d="M1323 4839 c9 -5 17 -17 17 -25 0 -12 -4 -12 -20 -4 -33 18 -24 -8
14 -45 32 -30 37 -45 14 -45 -5 0 -7 4 -4 9 3 5 -7 14 -22 19 -27 9 -28 8 -24
-13 2 -13 13 -25 23 -28 10 -3 19 -11 19 -19 0 -10 -2 -10 -8 -1 -11 18 -36
-1 -29 -22 4 -9 11 -13 17 -10 5 3 10 0 10 -7 0 -7 14 -22 30 -33 35 -23 40
-55 10 -55 -11 0 -20 6 -20 13 0 7 -5 5 -11 -5 -5 -9 -16 -15 -23 -12 -7 3
-16 -2 -19 -10 -4 -10 6 -22 33 -37 22 -12 37 -26 33 -31 -3 -6 -10 -5 -16 1
-6 6 -19 11 -29 11 -10 0 -18 5 -18 10 0 6 -5 10 -11 10 -13 0 -2 -36 19 -61
8 -10 19 -16 23 -14 4 3 13 -3 20 -13 13 -15 12 -16 -3 -3 -10 7 -18 10 -18 7
0 -4 -9 -2 -20 4 -17 9 -20 8 -20 -10 0 -11 6 -20 14 -20 8 0 16 -4 18 -8 2
-4 18 -18 36 -31 38 -27 42 -45 8 -39 -16 3 -27 0 -31 -10 -4 -11 -12 -4 -26
24 -29 54 -44 67 -25 22 8 -21 11 -38 6 -38 -15 0 1 -33 26 -56 13 -12 24 -28
24 -35 -1 -10 -4 -9 -11 4 -5 9 -16 17 -24 17 -25 0 -23 -25 4 -48 14 -13 21
-21 15 -18 -6 3 -21 -5 -33 -18 l-21 -23 22 1 c14 1 27 -8 34 -22 8 -16 13
-19 16 -10 9 27 37 -18 29 -46 0 -3 -14 -1 -31 4 -34 10 -42 -5 -8 -16 36 -11
51 -32 44 -60 -5 -17 -3 -23 4 -19 5 3 10 17 10 30 0 13 6 26 13 28 10 4 10 6
0 6 -7 1 -13 5 -13 9 0 13 57 7 75 -8 13 -11 19 -11 33 4 13 13 14 17 2 14
-16 -3 -21 21 -7 40 7 8 4 18 -7 30 -17 20 -22 37 -7 27 5 -3 12 -1 15 4 7 11
-29 53 -38 44 -3 -3 -6 1 -6 10 0 10 -7 17 -15 17 -8 0 -15 -9 -15 -20 0 -11
5 -20 10 -20 6 0 10 -4 10 -10 0 -5 -7 -10 -15 -10 -18 0 -29 40 -20 69 4 12
2 21 -4 21 -6 0 -11 5 -11 11 0 5 5 7 10 4 6 -3 10 -2 10 4 0 5 -5 13 -10 16
-6 4 -7 11 -4 17 12 19 12 68 1 68 -6 0 -8 3 -5 6 8 8 48 -14 48 -26 0 -6 -7
-10 -15 -10 -13 0 -14 -4 -4 -21 9 -17 8 -20 -2 -14 -8 5 -10 4 -5 -4 4 -6 11
-9 16 -6 12 8 41 -6 34 -16 -3 -5 6 -9 20 -9 14 0 26 3 26 8 -1 15 -28 42 -44
42 -9 0 -16 8 -15 18 0 10 3 12 6 5 2 -7 16 -13 30 -13 18 0 24 4 19 15 -3 8
-9 22 -12 30 -4 10 0 15 10 15 11 0 16 8 15 28 -1 17 -3 21 -6 9 -4 -16 -8
-14 -35 12 -17 17 -35 28 -40 25 -4 -3 -8 6 -8 20 0 19 -4 24 -15 20 -14 -6
-13 10 2 38 5 9 53 -12 53 -23 0 -4 8 -6 18 -5 12 2 16 10 14 29 -2 14 2 28 7
32 16 9 13 25 -4 25 -8 0 -19 9 -25 20 -8 16 -8 18 4 14 23 -9 42 7 25 20 -8
6 -20 19 -27 28 -11 14 -11 16 7 11 15 -4 19 -1 16 14 -1 10 -8 17 -15 15 -6
-1 -9 2 -6 6 6 10 -20 36 -47 45 -9 4 -16 10 -15 14 2 4 0 9 -4 11 -5 1 -17
11 -28 22 -12 12 -33 20 -52 20 -27 -1 -30 -2 -15 -11z m112 -98 c3 -5 1 -12
-5 -16 -5 -3 -10 1 -10 9 0 18 6 21 15 7z m-8 -47 c12 -11 13 -18 4 -27 -8 -8
-11 -7 -11 6 0 9 -4 17 -10 17 -5 0 -10 5 -10 10 0 14 9 12 27 -6z m-7 -54 c0
-5 -5 -10 -11 -10 -5 0 -7 5 -4 10 3 6 8 10 11 10 2 0 4 -4 4 -10z m25 -30 c3
-6 -1 -7 -9 -4 -18 7 -21 14 -7 14 6 0 13 -4 16 -10z m-30 -150 c-3 -5 -12
-10 -18 -10 -7 0 -6 4 3 10 19 12 23 12 15 0z m15 -30 c0 -5 -4 -10 -10 -10
-5 0 -10 5 -10 10 0 6 5 10 10 10 6 0 10 -4 10 -10z m27 -275 c0 -8 -4 -12 -9
-9 -5 3 -6 10 -3 15 9 13 12 11 12 -6z m-63 -4 c15 -6 16 -9 5 -13 -8 -3 -20
1 -27 8 -14 15 -7 17 22 5z m25 -36 c-9 -37 -12 -45 -20 -45 -10 0 -12 21 -3
45 7 17 27 17 23 0z m28 -27 c-3 -8 -6 -5 -6 6 -1 11 2 17 5 13 3 -3 4 -12 1
-19z"/>
<path d="M1690 4840 c-13 -8 -12 -10 3 -10 9 0 17 5 17 10 0 12 -1 12 -20 0z"/>
<path d="M1757 4820 c3 -19 10 -42 14 -50 5 -9 6 -1 2 20 -3 19 -10 42 -14 50
-5 9 -6 1 -2 -20z"/>
<path d="M1923 4810 c0 -25 2 -35 4 -22 2 12 2 32 0 45 -2 12 -4 2 -4 -23z"/>
<path d="M2538 4838 c8 -8 9 -15 1 -25 -9 -10 -7 -13 6 -13 10 0 15 -5 12 -14
-3 -7 -1 -18 3 -22 5 -5 11 -18 13 -29 2 -11 10 -40 17 -64 11 -36 12 -45 2
-49 -10 -3 -9 -9 4 -23 11 -12 13 -19 5 -19 -8 0 -5 -10 7 -27 11 -16 33 -55
49 -88 17 -33 38 -73 47 -90 26 -49 21 -58 -46 -83 -67 -23 -103 -28 -93 -12
3 6 -1 10 -9 10 -9 0 -16 3 -16 8 0 7 -57 67 -119 125 -24 24 -29 25 -25 10 3
-11 17 -27 32 -35 15 -9 38 -28 51 -42 23 -24 23 -26 5 -26 -11 0 -26 6 -34
13 -12 10 -12 9 -2 -5 10 -13 10 -17 0 -22 -7 -3 -4 -4 7 -2 21 4 96 -32 102
-49 2 -6 -25 -21 -59 -35 -49 -19 -81 -25 -145 -25 -44 0 -79 3 -76 8 11 19
-40 3 -122 -38 -50 -25 -92 -45 -94 -45 -2 0 -1 9 2 20 3 11 2 18 -3 15 -4 -3
-15 11 -24 30 -10 20 -21 33 -26 30 -6 -3 1 -28 15 -55 17 -34 21 -49 12 -53
-22 -8 -36 4 -58 51 -13 26 -35 64 -51 86 -24 33 -26 40 -13 53 8 8 19 12 24
9 16 -10 0 32 -19 49 -12 11 -20 13 -25 6 -3 -6 1 -14 9 -17 18 -7 21 -30 6
-39 -15 -9 -40 58 -46 124 -3 31 -9 74 -14 96 -5 22 -10 55 -10 73 0 17 -4 32
-10 32 -13 0 -12 -9 5 -105 18 -101 19 -133 4 -118 -7 7 -13 24 -13 40 -3 36
-37 143 -47 143 -4 0 -13 16 -19 36 -7 19 -14 33 -17 30 -3 -3 4 -25 16 -49
26 -54 54 -145 47 -156 -3 -4 6 -28 19 -53 13 -25 22 -48 19 -51 -3 -3 2 -16
11 -30 13 -20 13 -26 3 -31 -7 -3 -3 -3 9 -1 17 5 22 0 28 -25 4 -16 10 -30
15 -30 9 0 64 -93 74 -125 5 -16 -3 -24 -41 -40 -26 -11 -51 -21 -54 -23 -8
-3 -4 65 7 133 5 37 5 38 -9 20 -8 -10 -13 -25 -10 -32 3 -7 -1 -13 -8 -13
-10 0 -10 -3 -3 -8 10 -6 11 -25 5 -89 -2 -19 -39 -53 -57 -53 -13 0 -15 7
-10 31 4 22 2 29 -7 26 -7 -2 -11 -18 -9 -38 2 -28 -2 -36 -24 -46 -24 -11
-26 -10 -21 7 3 11 1 20 -3 20 -5 0 -11 8 -13 18 -2 9 -4 -3 -3 -27 1 -42 -1
-44 -60 -87 -48 -34 -63 -41 -67 -30 -4 10 -1 13 9 9 19 -7 18 3 -6 35 -13 19
-21 49 -24 102 -7 99 -16 150 -27 150 -5 0 -9 -5 -9 -11 0 -5 -6 -7 -12 -3
-10 6 -10 4 -2 -7 20 -25 34 -83 39 -159 2 -41 7 -91 11 -111 6 -36 6 -36 -80
-92 -47 -32 -88 -57 -90 -57 -2 0 -1 18 1 41 4 31 1 43 -13 54 -12 9 -14 14
-6 15 10 0 10 3 0 13 -13 15 -38 18 -38 5 0 -4 5 -8 10 -8 6 0 10 -32 10 -77
l0 -78 -65 -48 c-91 -67 -93 -68 -89 -10 2 36 1 41 -4 18 l-8 -30 -17 49 c-9
27 -17 72 -17 99 0 57 5 59 13 7 3 -19 10 -48 15 -65 17 -50 13 2 -4 69 -9 33
-17 92 -18 130 0 38 -2 62 -4 53 -2 -10 -7 -17 -10 -17 -4 0 -7 -18 -7 -39 0
-22 3 -37 7 -35 4 3 6 -5 5 -16 -1 -11 -4 -20 -8 -20 -4 0 -6 -28 -4 -62 3
-56 3 -59 -6 -28 -9 29 -12 32 -20 17 -6 -9 -7 -23 -2 -30 8 -14 13 -30 17
-70 2 -15 6 -30 10 -34 3 -3 6 -27 6 -52 -1 -40 -2 -44 -14 -28 -7 9 -17 17
-21 17 -4 0 -2 -7 5 -15 11 -13 10 -19 -8 -35 -37 -35 -127 -87 -141 -82 -8 3
-11 0 -7 -6 9 -15 -25 -31 -49 -22 -10 4 -34 5 -52 3 -28 -3 -35 1 -43 21 -5
13 -14 27 -20 31 -5 3 -8 11 -5 16 4 5 1 9 -4 9 -15 0 -14 -15 3 -29 8 -6 16
-20 19 -30 4 -17 -3 -19 -87 -19 -87 0 -96 2 -211 51 -66 28 -138 60 -160 72
-22 11 -67 31 -100 45 -33 13 -69 29 -80 37 -34 23 -33 26 -26 -134 1 -15 8
-23 19 -24 13 0 13 -2 -5 -9 -18 -7 -21 -16 -19 -52 l2 -43 47 -1 c26 -1 45 2
42 5 -2 4 9 5 25 3 l30 -4 -37 -19 c-21 -11 -46 -18 -58 -18 -14 1 -11 4 10 9
l30 8 -32 1 c-23 1 -33 -4 -33 -14 0 -8 -7 -15 -16 -15 -10 0 -14 -7 -12 -22
2 -13 10 -23 18 -23 8 0 16 -10 18 -22 3 -21 17 -28 50 -24 6 1 12 -3 12 -9 0
-6 -16 -9 -37 -7 -33 2 -38 6 -35 25 3 20 -7 27 -30 23 -5 0 -8 6 -8 15 0 12
-3 14 -13 6 -13 -11 -39 -1 -36 14 1 5 0 18 -1 29 -1 17 -3 15 -12 -7 -8 -22
-6 -31 11 -49 10 -11 24 -18 30 -14 6 3 11 1 11 -4 0 -6 -4 -11 -9 -11 -6 0
-9 -18 -8 -41 3 -40 2 -41 -28 -35 -30 6 -30 6 -8 -9 13 -9 23 -25 23 -36 0
-11 5 -17 10 -14 6 3 10 1 10 -4 0 -17 -18 -13 -29 7 -14 24 -14 -1 1 -33 8
-19 9 -28 0 -37 -8 -8 -9 -5 -5 11 3 12 1 21 -6 21 -6 0 -11 -15 -11 -34 0
-19 -5 -38 -10 -41 -6 -3 -10 -11 -10 -16 0 -6 4 -8 8 -5 4 2 8 -13 7 -34 0
-21 -3 -36 -8 -33 -4 2 -10 -3 -13 -12 -6 -13 -8 -14 -15 -3 -6 9 -9 6 -10
-12 -1 -14 -5 -2 -9 25 -4 34 -6 15 -6 -62 1 -62 2 -113 3 -113 1 0 7 10 14
21 8 15 8 19 0 15 -15 -10 -13 24 3 53 8 14 12 30 9 36 -2 7 3 18 12 25 8 7
15 9 16 4 0 -5 2 -17 4 -26 2 -10 0 -20 -4 -22 -4 -3 -6 -43 -4 -90 2 -77 -6
-108 -20 -73 -4 9 -6 9 -6 0 -1 -6 3 -15 9 -18 5 -3 10 -11 10 -16 0 -6 -4 -7
-10 -4 -5 3 -10 1 -10 -5 0 -7 -7 -10 -15 -6 -11 4 -15 -2 -15 -20 0 -14 4
-22 10 -19 6 3 10 2 10 -4 0 -5 -4 -12 -10 -16 -6 -3 -9 -299 -10 -790 0 -740
1 -784 17 -788 17 -4 17 -5 1 -6 -20 -1 -25 -28 -5 -28 6 0 35 -3 63 -7 56 -8
63 -4 66 37 2 23 7 26 40 25 25 0 38 -5 38 -14 0 -10 15 -12 67 -8 38 3 82 10
98 14 17 5 50 12 75 16 24 3 59 18 77 31 20 15 59 29 105 38 40 7 89 18 108
24 42 13 40 13 40 2 0 -5 -17 -15 -37 -22 -61 -19 -153 -68 -153 -81 0 -6 -3
-8 -7 -5 -10 11 -43 -24 -43 -45 0 -19 25 -25 35 -8 12 19 27 -2 21 -29 -4
-22 -3 -21 9 6 19 42 105 110 157 123 49 14 62 6 15 -9 -83 -28 -156 -110
-191 -215 -5 -14 -10 -16 -17 -9 -7 7 -8 17 -1 29 11 22 -5 43 -26 36 -7 -2
-16 5 -19 17 -7 27 -13 26 -42 -4 -21 -23 -21 -25 -5 -25 23 -1 57 -28 67 -53
8 -20 -15 -51 -29 -39 -5 4 -3 0 3 -8 7 -9 8 -21 4 -29 -6 -10 -10 -9 -15 4
-3 9 -10 14 -15 10 -6 -3 -6 7 0 27 11 41 11 38 -3 38 -18 -1 -77 -81 -84
-116 -4 -16 -25 -44 -47 -64 l-41 -35 21 35 c29 49 38 91 18 84 -11 -5 -13 -2
-9 10 3 8 14 18 24 21 11 3 25 22 32 41 7 21 18 34 28 33 19 -3 50 11 50 21 0
18 -85 22 -121 6 l-34 -15 39 6 40 6 -25 -30 c-24 -30 -45 -34 -35 -7 3 9 -4
16 -19 20 -24 6 -34 0 -106 -58 -19 -15 -57 -38 -64 -38 -2 0 -2 7 2 16 7 19
3 17 -44 -11 -18 -11 -33 -25 -33 -32 0 -7 -6 -16 -14 -20 -7 -4 -19 -19 -25
-32 -10 -17 -16 -20 -24 -12 -12 12 28 54 139 150 36 31 95 55 153 63 21 3 25
9 27 51 1 26 -3 47 -8 47 -6 0 -8 -16 -6 -35 5 -40 -7 -47 -16 -10 -8 30 -26
32 -46 4 -15 -20 -29 -28 -120 -65 -25 -10 -53 -24 -62 -32 -9 -8 -22 -11 -28
-7 -6 4 -22 0 -35 -9 -22 -15 -24 -22 -22 -91 1 -41 6 -75 11 -75 4 0 5 -8 1
-17 -14 -34 -17 -75 -6 -68 6 3 8 11 5 17 -4 6 -2 8 3 5 6 -4 22 2 36 13 26
21 63 28 52 10 -3 -6 1 -10 10 -10 9 0 13 -5 10 -10 -3 -6 1 -10 10 -10 9 0
13 -5 10 -10 -3 -6 -1 -10 5 -10 6 0 -1 -12 -15 -27 -14 -15 -25 -31 -25 -36
0 -4 -7 -7 -16 -5 -10 2 -19 -3 -22 -11 -3 -8 0 -11 6 -7 22 13 22 -13 0 -28
-25 -18 -42 -21 -33 -6 3 5 -1 10 -10 10 -9 0 -13 5 -9 11 4 7 1 10 -7 7 -11
-4 -15 -49 -17 -231 l-2 -227 184 0 c151 0 186 3 196 15 14 17 30 20 30 4 0
-5 -4 -7 -10 -4 -5 3 -10 1 -10 -4 0 -7 35 -11 95 -11 90 0 95 1 111 25 22 33
50 49 60 33 4 -7 3 -8 -4 -4 -7 4 -12 3 -12 -3 0 -6 -10 -19 -22 -31 l-22 -20
117 0 c64 0 117 4 117 8 0 5 20 40 45 78 24 38 45 77 45 87 0 21 50 96 64 97
5 0 2 -8 -7 -18 -18 -20 -22 -49 -8 -70 7 -12 14 -11 39 2 17 9 33 12 36 7 3
-5 -1 -11 -9 -15 -14 -5 -22 -36 -9 -36 14 0 72 41 78 55 3 8 11 15 17 15 8 0
6 -7 -4 -18 -10 -10 -14 -21 -11 -25 4 -3 -5 -9 -20 -13 -14 -3 -23 -10 -20
-15 3 -5 -2 -9 -11 -9 -8 0 -29 -21 -46 -48 l-31 -47 5 52 c4 55 -1 64 -23 38
-7 -8 -16 -13 -20 -10 -12 7 -100 -88 -100 -108 0 -4 75 -7 168 -7 l167 0 34
35 c19 19 41 35 49 35 8 0 -5 -15 -29 -32 l-44 -33 309 -3 c241 -2 311 1 318
10 6 10 8 10 8 1 0 -10 193 -13 930 -13 l930 0 0 472 0 472 -27 24 -28 23 28
-17 27 -16 0 84 0 84 -44 46 c-24 25 -48 60 -54 77 -14 39 2 32 24 -11 9 -18
29 -45 45 -62 l29 -31 0 281 c0 228 -3 288 -15 317 -19 45 -19 58 0 33 8 -11
15 -16 15 -10 0 20 -17 33 -38 29 -12 -2 -22 1 -22 6 0 6 -4 8 -8 5 -5 -3 -25
10 -46 29 -46 41 -104 55 -123 29 -7 -10 -13 -23 -13 -30 0 -17 -70 -60 -108
-66 -27 -4 -32 -2 -27 11 3 8 2 12 -2 7 -12 -11 -10 -70 2 -78 6 -5 5 -8 -3
-8 -9 0 -10 -5 -2 -19 5 -11 8 -26 5 -33 -6 -15 48 -52 59 -41 4 4 5 1 1 -7
-3 -10 5 -22 22 -32 16 -10 23 -18 17 -18 -7 0 -40 19 -74 42 -58 38 -61 42
-44 55 16 12 17 15 4 23 -10 6 -17 5 -20 -5 -11 -30 -50 27 -50 73 0 25 -3 28
-29 26 -81 -5 -100 -17 -96 -61 2 -25 -31 -39 -39 -16 -6 16 41 80 55 76 5 -2
6 3 3 10 -2 7 8 20 23 30 30 18 106 83 86 72 -7 -3 -13 -2 -13 2 0 8 25 26 66
47 11 6 40 28 63 48 l44 37 -39 -5 c-133 -20 -240 -64 -315 -131 -26 -24 -51
-43 -55 -43 -4 0 1 7 12 16 18 15 17 15 -6 1 -14 -8 -28 -27 -31 -43 -4 -16
-12 -51 -19 -79 -6 -27 -15 -113 -20 -190 -5 -77 -9 -142 -10 -145 0 -3 -5 2
-10 10 -8 12 -10 9 -10 -12 0 -16 -4 -28 -8 -28 -4 0 -8 -9 -8 -19 0 -11 4
-18 7 -15 6 4 5 -39 -1 -56 -2 -3 -2 -8 -1 -12 2 -15 -19 -58 -28 -58 -10 0
-35 59 -32 75 2 6 0 7 -4 3 -4 -4 -14 0 -23 8 -10 10 -17 12 -21 5 -7 -11 -71
7 -71 20 0 3 -10 5 -22 4 -14 -1 -22 -9 -25 -24 -2 -13 1 -20 7 -16 15 9 12
-9 -6 -41 -15 -28 -15 -27 -10 41 3 39 8 86 11 105 3 19 2 29 -1 23 -11 -25
-19 -12 -18 30 0 46 44 146 157 362 81 154 137 239 180 278 l32 28 -37 -6
c-21 -4 -39 -3 -39 1 -7 47 -6 51 20 52 14 1 38 4 54 6 21 2 27 -1 25 -13 -2
-9 -7 -19 -11 -22 -5 -3 -1 -13 7 -22 20 -20 20 -28 1 -21 -11 5 -15 -1 -15
-25 0 -17 -9 -64 -20 -103 -11 -40 -20 -76 -20 -79 0 -14 35 -2 36 12 1 8 2
18 3 23 0 6 6 5 12 -1 9 -9 24 -3 60 22 27 18 79 43 116 56 38 12 93 34 123
49 31 16 78 31 105 35 32 5 91 30 163 69 l112 60 0 411 c0 315 -3 414 -12 424
-10 11 -10 13 -1 7 10 -6 13 159 13 809 0 712 -2 821 -16 853 -8 20 -14 48
-13 62 3 55 -2 90 -12 90 -11 0 -7 -123 6 -170 6 -25 3 -27 -97 -62 -57 -20
-130 -46 -162 -58 -42 -15 -62 -18 -70 -10 -9 9 -48 145 -60 210 -14 73 -20
90 -31 90 -12 0 -16 -30 -4 -40 8 -7 41 -120 44 -150 1 -14 8 -38 14 -53 17
-43 13 -75 -9 -87 -18 -10 -21 -7 -27 22 -4 18 -6 36 -5 41 1 4 -3 6 -9 5 -6
-2 -21 24 -33 58 -20 54 -21 63 -8 94 12 31 12 33 -2 21 -9 -8 -16 -21 -17
-30 0 -19 -49 76 -49 96 0 14 -27 29 -36 20 -3 -3 -1 -13 5 -24 32 -58 91
-197 88 -207 -2 -6 9 -34 24 -62 l28 -51 -38 -13 c-21 -7 -45 -9 -52 -5 -8 6
-11 3 -7 -11 4 -17 -2 -19 -46 -22 -27 -2 -56 -8 -63 -13 -21 -18 -84 -48
-114 -54 -24 -6 -29 -3 -29 13 0 11 6 23 13 26 6 3 2 3 -10 0 -13 -3 -23 -1
-23 5 0 6 -5 11 -12 11 -9 0 -9 -3 0 -12 7 -7 12 -25 12 -40 0 -23 -4 -28 -26
-28 -21 0 -25 4 -22 23 2 13 9 21 18 19 12 -3 13 -1 3 9 -7 7 -13 21 -13 32 0
14 5 17 23 13 l22 -6 -23 12 c-21 11 -23 16 -17 67 3 31 8 71 11 89 3 19 1 32
-6 32 -5 0 -10 -3 -11 -7 0 -5 -2 -26 -5 -48 -2 -22 -5 -59 -6 -83 -2 -31 -6
-41 -16 -37 -7 2 -10 0 -7 -5 13 -21 -15 -9 -29 13 -19 28 -33 147 -17 147 17
0 13 37 -4 44 -9 3 -15 0 -15 -9 0 -8 -5 -15 -11 -15 -5 0 -7 -6 -3 -12 10
-16 12 -31 20 -148 4 -52 10 -104 14 -115 5 -11 6 6 3 38 -6 63 1 70 35 34 22
-23 30 -67 13 -67 -5 0 -7 -8 -4 -19 3 -11 -2 -21 -11 -24 -9 -4 -16 -2 -16 3
0 6 -7 10 -15 10 -15 0 -58 77 -50 90 3 4 -2 10 -10 14 -8 3 -15 11 -15 18 0
7 -7 26 -15 42 -8 15 -12 32 -9 37 3 5 -2 9 -12 9 -12 0 -15 6 -11 26 2 14 -2
38 -9 53 -8 14 -14 36 -14 49 0 13 -6 35 -14 50 -7 15 -17 46 -21 70 -5 29
-12 42 -23 42 -12 0 -13 -3 -4 -12z m1123 -399 c-9 -22 -10 -22 -10 -3 -1 11
2 24 6 27 12 12 14 0 4 -24z m-21 -1 c0 -16 -3 -19 -11 -11 -6 6 -8 16 -5 22
11 17 16 13 16 -11z m-208 -40 c-7 -7 -12 -8 -12 -2 0 6 3 14 7 17 3 4 9 5 12
2 2 -3 -1 -11 -7 -17z m188 12 c0 -5 -2 -10 -4 -10 -3 0 -8 5 -11 10 -3 6 -1
10 4 10 6 0 11 -4 11 -10z m-220 -10 c0 -5 -5 -10 -11 -10 -5 0 -7 5 -4 10 3
6 8 10 11 10 2 0 4 -4 4 -10z m160 0 c0 -5 -5 -10 -11 -10 -5 0 -7 5 -4 10 3
6 8 10 11 10 2 0 4 -4 4 -10z m-490 -26 c0 -2 -10 -8 -21 -15 -17 -8 -23 -8
-30 2 -4 7 -6 16 -4 20 4 6 55 0 55 -7z m394 -3 c7 -10 -17 -21 -42 -21 -15 1
-14 3 2 15 23 17 33 19 40 6z m-80 -12 c-2 -4 1 -9 8 -11 8 -3 6 -6 -4 -10
-10 -4 -18 0 -21 11 -2 10 1 18 9 18 7 0 11 -4 8 -8z m101 -23 c7 3 16 0 20
-6 3 -6 1 -9 -6 -8 -6 2 -14 -3 -16 -10 -3 -7 1 -13 8 -11 29 3 37 -2 32 -21
-7 -25 -12 -25 -29 -2 -11 15 -12 12 -7 -20 4 -25 1 -43 -8 -54 -11 -14 -10
-18 6 -31 18 -14 18 -15 2 -9 -10 3 -23 6 -28 6 -6 0 -8 4 -5 9 3 5 -2 15 -12
22 -15 13 -16 12 -3 -3 12 -16 10 -19 -10 -28 -23 -10 -23 -10 -1 -6 23 4 31
-17 10 -30 -7 -4 -8 -3 -4 4 4 7 1 12 -8 12 -9 0 -16 -7 -16 -15 0 -18 -16
-20 -26 -3 -4 7 -9 41 -9 75 -2 60 -1 62 15 43 22 -26 26 -25 26 5 0 14 -4 25
-9 25 -5 0 -7 7 -3 15 3 10 -1 15 -12 15 -15 1 -15 2 1 15 11 7 25 11 32 9 7
-3 16 0 20 6 5 8 11 8 17 2 6 -6 16 -8 23 -6z m-440 -6 c-3 -5 -10 -10 -16
-10 -5 0 -9 5 -9 10 0 6 7 10 16 10 8 0 12 -4 9 -10z m518 -5 c-3 -9 -8 -14
-10 -11 -3 3 -2 9 2 15 9 16 15 13 8 -4z m42 -30 c0 -37 -11 -48 -17 -17 -5
20 2 52 11 52 3 0 6 -16 6 -35z m-549 -23 c-13 -13 -18 -14 -28 -3 -11 10 -9
11 5 5 13 -5 18 -2 17 7 -1 8 -2 21 -1 29 1 12 4 11 12 -4 9 -14 7 -22 -5 -34z
m231 -27 c9 -24 -1 -27 -15 -5 -8 13 -8 20 -2 20 6 0 13 -7 17 -15z m-199 -40
c-9 -9 -30 14 -23 25 6 9 10 8 17 -4 6 -10 8 -19 6 -21z m102 0 c0 -8 -2 -15
-4 -15 -2 0 -6 7 -10 15 -3 8 -1 15 4 15 6 0 10 -7 10 -15z m109 -29 c-9 -8
-10 -7 -5 7 3 10 7 24 7 30 1 7 3 4 6 -7 3 -10 -1 -23 -8 -30z m-959 14 c12
-8 10 -9 -7 -7 -12 2 -26 6 -29 10 -11 11 19 8 36 -3z m720 -1 c0 -5 -6 -7
-12 -3 -10 6 -10 5 -1 -8 7 -8 10 -18 6 -21 -13 -14 -23 -6 -23 18 0 16 6 25
15 25 8 0 15 -5 15 -11z m523 -17 c-3 -12 -10 -22 -15 -22 -5 0 -7 3 -5 8 2 4
7 16 11 26 9 25 17 16 9 -12z m-40 11 c-7 -2 -19 -2 -25 0 -7 3 -2 5 12 5 14
0 19 -2 13 -5z m-335 -17 c-13 -14 -28 -12 -28 5 0 5 9 9 20 9 17 0 19 -2 8
-14z m109 -18 c-3 -8 -6 -5 -6 6 -1 11 2 17 5 13 3 -3 4 -12 1 -19z m223 12
c0 -5 -4 -10 -10 -10 -5 0 -10 5 -10 10 0 6 5 10 10 10 6 0 10 -4 10 -10z
m-540 -10 c0 -5 -5 -10 -11 -10 -5 0 -7 5 -4 10 3 6 8 10 11 10 2 0 4 -4 4
-10z m250 -6 c0 -8 -4 -12 -10 -9 -5 3 -10 10 -10 16 0 5 5 9 10 9 6 0 10 -7
10 -16z m-680 -52 c0 -15 -2 -15 -10 -2 -13 20 -13 33 0 25 6 -3 10 -14 10
-23z m640 24 c0 -3 -4 -8 -10 -11 -5 -3 -10 -1 -10 4 0 6 5 11 10 11 6 0 10
-2 10 -4z m172 -18 c-7 -7 -12 -8 -12 -2 0 6 3 14 7 17 3 4 9 5 12 2 2 -3 -1
-11 -7 -17z m47 5 c-5 -31 2 -35 24 -15 22 21 67 21 67 0 0 -5 -5 -6 -12 -2
-8 5 -9 2 -5 -10 4 -10 -5 -37 -23 -69 -16 -29 -30 -46 -30 -38 0 7 -6 11 -15
7 -22 -8 -47 32 -34 56 5 10 7 18 3 18 -3 0 -1 7 6 15 9 10 9 15 1 15 -6 0
-11 7 -11 15 0 8 7 15 15 15 8 0 14 -3 14 -7z m-992 -9 c-3 -3 -12 -4 -19 -1
-8 3 -5 6 6 6 11 1 17 -2 13 -5z m563 -14 c0 -5 -7 -7 -15 -4 -8 4 -12 10 -9
15 6 11 24 2 24 -11z m220 6 c0 -7 -9 -16 -21 -19 -13 -3 -19 -1 -16 6 3 7 10
11 16 10 6 -2 11 2 11 7 0 6 2 10 5 10 3 0 5 -6 5 -14z m65 4 c3 -5 -1 -10 -9
-10 -8 0 -18 5 -21 10 -3 6 1 10 9 10 8 0 18 -4 21 -10z m-365 -10 c0 -5 -2
-10 -4 -10 -3 0 -8 5 -11 10 -3 6 -1 10 4 10 6 0 11 -4 11 -10z m140 -14 c10
-13 10 -17 3 -12 -8 4 -13 2 -13 -4 0 -6 -4 -9 -9 -6 -5 4 -12 0 -14 -6 -4
-10 -6 -10 -6 0 -1 7 5 15 13 18 9 3 12 13 9 22 -7 18 -5 17 17 -12z m239 -32
c26 -24 17 -35 -9 -11 -12 10 -12 9 -1 -6 12 -15 11 -19 -4 -31 -10 -7 -15
-18 -11 -24 5 -8 0 -12 -14 -12 -15 0 -22 -8 -27 -31 -9 -45 -21 -17 -27 62
-7 102 22 119 93 53z m21 19 c0 -13 -3 -13 -15 -3 -8 7 -12 16 -9 21 8 13 24
1 24 -18z m-175 7 c4 -6 4 -23 0 -39 -5 -22 -13 -30 -36 -33 -34 -5 -37 4 -10
31 11 11 17 22 14 25 -7 6 6 26 17 26 5 0 12 -5 15 -10z m-586 -26 c3 -16 1
-17 -13 -5 -19 16 -21 34 -3 29 6 -3 14 -13 16 -24z m521 2 c0 -2 -8 -10 -17
-17 -16 -13 -17 -12 -4 4 13 16 21 21 21 13z m-473 -21 c0 -8 -4 -12 -9 -9 -5
3 -6 10 -3 15 9 13 12 11 12 -6z m323 -7 c0 -6 -6 -5 -15 2 -8 7 -15 14 -15
16 0 2 7 1 15 -2 8 -4 15 -11 15 -16z m-448 -10 c-7 -7 -12 -8 -12 -2 0 14 12
26 19 19 2 -3 -1 -11 -7 -17z m176 -3 c-3 -3 -9 2 -12 12 -6 14 -5 15 5 6 7
-7 10 -15 7 -18z m922 15 c0 -5 -5 -10 -11 -10 -5 0 -7 5 -4 10 3 6 8 10 11
10 2 0 4 -4 4 -10z m-840 -11 c0 -5 -4 -7 -10 -4 -5 3 -10 1 -10 -6 0 -7 -3
-10 -6 -6 -8 7 4 27 17 27 5 0 9 -5 9 -11z m583 -82 c-6 -29 -7 -30 -15 -8 -6
17 -13 21 -28 16 -11 -4 -20 -2 -20 4 0 6 6 11 13 11 6 0 19 15 26 32 l15 33
7 -29 c5 -16 5 -42 2 -59z m-898 63 c3 -5 1 -10 -4 -10 -6 0 -11 5 -11 10 0 6
2 10 4 10 3 0 8 -4 11 -10z m100 -12 c5 -4 0 -6 -13 -5 -22 1 -27 8 -15 20 3
4 9 4 12 0 3 -4 10 -11 16 -15z m992 7 c0 -8 -4 -12 -9 -9 -7 5 -12 -10 -9
-28 0 -5 -3 -8 -9 -8 -13 0 -13 16 0 41 13 22 27 25 27 4z m-937 -14 c0 -11
-4 -22 -9 -25 -5 -3 -8 6 -8 19 0 14 3 25 8 25 5 0 9 -9 9 -19z m600 2 c0 -10
3 -29 7 -43 7 -25 6 -25 -13 -6 -10 11 -19 22 -19 25 0 3 -3 11 -7 17 -9 13 0
24 19 24 7 0 13 -8 13 -17z m230 -19 c0 -8 -6 -11 -15 -8 -8 4 -15 15 -15 26
0 17 3 18 15 8 8 -7 15 -19 15 -26z m-808 -9 c3 -13 2 -22 -2 -20 -5 3 -10 -2
-14 -10 -3 -8 -9 -15 -14 -15 -7 0 17 68 24 70 1 0 4 -11 6 -25z m-232 -20 c0
-5 -5 -3 -10 5 -5 8 -10 20 -10 25 0 6 5 3 10 -5 5 -8 10 -19 10 -25z m179 17
c7 -14 6 -25 -5 -40 -17 -25 -30 -28 -32 -9 -1 6 -4 24 -8 40 -5 23 -3 27 14
27 12 0 26 -8 31 -18z m113 4 c10 -7 15 -16 11 -19 -3 -4 3 -7 15 -7 11 0 22
5 24 11 2 7 12 0 22 -15 18 -29 16 -56 -6 -56 -10 0 -10 2 1 9 10 7 11 13 1
31 -7 13 -15 18 -19 13 -3 -6 -15 -13 -26 -16 -19 -4 -18 -5 2 -6 15 -1 21 -7
20 -20 -1 -12 -7 -17 -19 -13 -10 2 -15 8 -12 13 3 5 0 9 -5 9 -6 0 -11 -13
-11 -29 0 -35 -30 -47 -57 -22 -10 10 -27 23 -38 30 -20 12 -20 12 0 7 20 -6
20 -6 1 9 -17 13 -18 15 -3 15 9 0 17 -4 17 -10 0 -5 5 -10 11 -10 6 0 8 9 4
20 -4 14 -2 20 9 20 12 0 14 -5 7 -23 -11 -30 13 -67 31 -49 7 7 8 12 2 12 -6
0 -10 12 -10 28 0 15 -4 39 -7 55 -8 30 6 36 35 13z m445 8 c-3 -3 -12 -4 -19
-1 -8 3 -5 6 6 6 11 1 17 -2 13 -5z m-637 -40 c0 -9 -5 -13 -12 -9 -7 4 -5 0
4 -8 14 -11 15 -16 5 -27 -10 -10 -8 -10 9 -2 11 6 26 7 33 3 9 -6 2 -10 -19
-13 -26 -4 -34 -1 -42 18 -8 17 -8 27 2 39 16 19 20 19 20 -1z m36 -22 c-9 -8
-26 10 -26 26 1 15 2 15 15 -2 8 -11 13 -21 11 -24z m-356 24 c0 -2 -7 -6 -15
-10 -8 -3 -15 -1 -15 4 0 6 7 10 15 10 8 0 15 -2 15 -4z m1020 -63 c0 -7 -7
-13 -15 -13 -8 0 -18 0 -22 -1 -4 0 -9 5 -12 12 -2 8 1 9 10 4 8 -5 11 -4 6 1
-5 5 -13 9 -18 9 -5 0 -9 4 -8 9 0 5 -6 13 -15 18 -9 5 -16 13 -16 18 0 14 89
-43 90 -57z m-376 50 c-5 -5 -12 -12 -16 -18 -4 -6 -8 -2 -8 8 0 9 7 17 17 17
9 0 12 -3 7 -7z m111 -3 c-3 -5 -12 -10 -18 -10 -7 0 -6 4 3 10 19 12 23 12
15 0z m127 -15 c-8 -16 -9 -16 -15 -1 -4 10 -3 15 3 11 6 -3 10 -1 10 6 0 7 3
10 6 6 3 -3 2 -13 -4 -22z m-197 -3 c-3 -3 -11 0 -18 7 -9 10 -8 11 6 5 10 -3
15 -9 12 -12z m352 12 c-3 -3 -12 -4 -19 -1 -8 3 -5 6 6 6 11 1 17 -2 13 -5z
m67 -26 c-3 -5 -12 -4 -20 3 -19 16 -18 18 6 12 11 -3 17 -9 14 -15z m-264 2
c0 -5 -4 -10 -10 -10 -5 0 -10 5 -10 10 0 6 5 10 10 10 6 0 10 -4 10 -10z
m-1010 -5 c0 -2 -10 -9 -22 -15 -22 -11 -22 -10 -4 4 21 17 26 19 26 11z m907
-17 c-3 -8 -6 -5 -6 6 -1 11 2 17 5 13 3 -3 4 -12 1 -19z m184 1 c9 -17 8 -23
-2 -30 -23 -14 -49 -11 -44 6 3 8 7 22 10 30 6 21 22 19 36 -6z m-141 7 c0 -3
-4 -8 -10 -11 -5 -3 -10 -1 -10 4 0 6 5 11 10 11 6 0 10 -2 10 -4z m-347 -47
c3 -11 14 -19 26 -19 12 0 21 -5 21 -10 0 -6 -8 -10 -17 -8 -12 2 -17 -3 -15
-14 2 -14 -4 -18 -25 -18 -22 0 -25 2 -13 10 8 5 11 10 6 10 -6 0 -5 5 1 11
12 12 7 39 -7 39 -4 0 -10 -9 -13 -20 -3 -11 -10 -20 -15 -20 -6 0 -8 9 -5 20
3 11 9 20 14 20 5 0 9 7 9 15 0 20 27 8 33 -16z m173 22 c-10 -16 -45 -19 -50
-5 -4 10 3 14 25 14 17 0 28 -4 25 -9z m57 -19 c24 -21 21 -30 -7 -25 -21 4
-24 2 -19 -17 5 -19 10 -21 42 -15 26 4 32 3 21 -4 -8 -6 -24 -11 -35 -11 -12
0 -27 -6 -34 -12 -11 -10 -13 -10 -7 0 4 6 3 12 -3 12 -5 0 -13 14 -16 31 -6
24 -3 34 9 41 9 5 13 14 10 20 -8 13 12 2 39 -20z m-83 -16 c0 -2 -7 -7 -16
-10 -8 -3 -12 -2 -9 4 6 10 25 14 25 6z m-1335 -27 c-6 -33 -15 -36 -15 -6 0
15 4 27 9 27 6 0 8 -10 6 -21z m598 6 c-3 -9 -8 -14 -10 -11 -3 3 -2 9 2 15 9
16 15 13 8 -4z m1069 -7 c-7 -7 -12 -8 -12 -2 0 6 3 14 7 17 3 4 9 5 12 2 2
-3 -1 -11 -7 -17z m-648 -4 c3 -7 -2 -18 -10 -24 -8 -7 -14 -11 -15 -9 -6 27
-3 46 7 46 7 0 15 -6 18 -13z m601 6 c3 -5 -1 -10 -10 -10 -9 0 -13 5 -10 10
3 6 8 10 10 10 2 0 7 -4 10 -10z m-275 -16 c0 -18 -26 -19 -33 -1 -3 8 3 14
14 14 11 1 19 -5 19 -13z m-950 -22 c3 -2 -10 -1 -28 3 -21 4 -38 2 -47 -5
-18 -15 -20 -4 -3 14 10 10 20 11 43 3 16 -5 32 -12 35 -15z m290 24 c0 -2 -7
-7 -16 -10 -8 -3 -12 -2 -9 4 6 10 25 14 25 6z m596 -8 c2 -3 -12 -5 -31 -6
-19 -1 -35 2 -35 6 0 8 58 8 66 0z m-156 -18 c-8 -5 -19 -10 -25 -10 -5 0 -3
5 5 10 8 5 20 10 25 10 6 0 3 -5 -5 -10z m171 -7 c-11 -5 -11 -7 0 -15 11 -8
11 -9 -1 -5 -8 2 -24 0 -35 -5 -19 -9 -19 -8 -2 6 18 14 18 14 0 19 -10 3 -2
5 17 5 19 0 29 -2 21 -5z m-271 -24 c0 -6 9 -9 19 -6 14 3 21 -2 26 -21 4 -16
1 -28 -7 -33 -15 -10 -34 -12 -25 -3 3 3 -3 15 -14 27 -20 22 -25 47 -9 47 6
0 10 -5 10 -11z m630 7 c0 -2 -7 -7 -16 -10 -8 -3 -12 -2 -9 4 6 10 25 14 25
6z m-990 -31 c40 -18 18 -15 -70 9 l-55 16 45 -4 c25 -3 61 -12 80 -21z m1008
-3 c2 -7 -5 -12 -17 -12 -14 0 -19 5 -14 15 6 17 25 15 31 -3z m-1413 -10 c-3
-3 -11 0 -18 7 -9 10 -8 11 6 5 10 -3 15 -9 12 -12z m690 -2 c-3 -4 0 -11 5
-13 6 -3 5 -4 -2 -3 -7 1 -15 11 -16 21 -3 11 0 15 7 10 6 -3 9 -10 6 -15z
m-1146 -43 c0 -21 -1 -21 -9 -2 -12 28 -12 37 0 30 6 -3 10 -16 9 -28z m1835
-8 c-5 -8 -10 -6 -16 5 -5 9 -6 21 -2 27 5 8 10 6 16 -5 5 -9 6 -21 2 -27z
m-60 7 c-3 -9 -13 -16 -22 -16 -13 0 -12 3 4 19 22 21 27 21 18 -3z m-584 4
c0 -5 -5 -10 -11 -10 -5 0 -7 5 -4 10 3 6 8 10 11 10 2 0 4 -4 4 -10z m-35
-10 c3 -6 -1 -7 -9 -4 -18 7 -21 14 -7 14 6 0 13 -4 16 -10z m-2081 -79 c-2
-3 -12 3 -22 13 -16 17 -16 18 5 5 12 -7 20 -15 17 -18z m2714 7 c-19 -28 -32
-29 -36 -3 -3 16 -1 17 7 5 9 -13 11 -13 11 3 0 9 7 17 16 17 15 0 15 -2 2
-22z m25 -45 c-3 -7 -9 -13 -14 -13 -11 0 -12 34 -2 43 9 10 22 -13 16 -30z
m-2613 -9 c0 -2 -7 -4 -15 -4 -8 0 -15 4 -15 10 0 5 7 7 15 4 8 -4 15 -8 15
-10z m-106 -9 c-4 -8 -8 -15 -10 -15 -2 0 -4 7 -4 15 0 8 4 15 10 15 5 0 7 -7
4 -15z m-74 -5 c0 -5 -2 -10 -4 -10 -3 0 -8 5 -11 10 -3 6 -1 10 4 10 6 0 11
-4 11 -10z m2810 0 c0 -5 -5 -10 -11 -10 -6 0 -7 -5 -2 -12 4 -7 8 -18 9 -24
1 -6 5 -26 9 -43 4 -19 3 -31 -4 -31 -11 0 -27 68 -17 77 3 3 1 12 -5 19 -11
14 -4 34 12 34 5 0 9 -4 9 -10z m-2773 -24 c3 -3 -10 -6 -31 -6 -20 0 -35 4
-32 9 6 10 52 8 63 -3z m2700 -11 c0 -8 -4 -15 -9 -15 -10 0 -11 14 -1 23 9
10 10 9 10 -8z m33 -26 c0 -12 -5 -19 -11 -17 -6 2 -10 7 -10 11 1 4 1 14 1
23 0 8 5 12 10 9 6 -3 10 -15 10 -26z m-2635 11 c-3 -5 -12 -7 -20 -3 -21 7
-19 13 6 13 11 0 18 -4 14 -10z m95 0 c0 -5 -12 -10 -26 -10 -14 0 -23 4 -19
10 3 6 15 10 26 10 10 0 19 -4 19 -10z m-173 -6 c-3 -3 -12 -4 -19 -1 -8 3 -5
6 6 6 11 1 17 -2 13 -5z m203 -24 c0 -5 -2 -10 -4 -10 -3 0 -8 5 -11 10 -3 6
-1 10 4 10 6 0 11 -4 11 -10z m-75 -10 c-3 -5 0 -11 7 -11 84 -7 104 -19 30
-18 -28 1 -49 6 -46 10 3 5 -1 9 -8 9 -9 0 -9 3 2 10 19 12 23 12 15 0z m319
-33 l69 -31 -34 -28 c-18 -16 -39 -26 -46 -24 -16 7 -27 -32 -14 -48 6 -7 8
-15 5 -18 -3 -3 -25 12 -50 35 -43 39 -44 42 -44 99 0 69 -6 68 114 15z m52
33 c15 -6 24 -13 22 -16 -3 -3 -21 2 -39 10 -39 16 -24 21 17 6z m2217 -22 c4
-12 5 -24 3 -26 -7 -7 -36 30 -31 39 10 16 22 10 28 -13z m-2461 -10 c-9 -9
-15 -9 -24 0 -9 9 -7 12 12 12 19 0 21 -3 12 -12z m-246 -20 c1 -12 -9 -16
-47 -17 -27 0 -49 4 -49 9 0 6 18 10 41 10 27 0 38 4 33 11 -4 7 -1 10 6 7 7
-2 14 -11 16 -20z m59 12 c3 -5 -3 -10 -14 -10 -12 0 -21 5 -21 10 0 6 6 10
14 10 8 0 18 -4 21 -10z m137 -17 c-6 -3 -9 -9 -6 -15 4 -6 -2 -5 -15 1 -28
15 -27 19 7 18 15 0 21 -2 14 -4z m-53 -12 c9 -6 5 -8 -13 -8 -14 0 -26 3 -26
8 0 11 21 11 39 0z m2564 -27 c18 -38 22 -70 8 -78 -7 -5 -17 21 -36 92 -10
34 8 26 28 -14z m17 26 c0 -5 -2 -10 -4 -10 -3 0 -8 5 -11 10 -3 6 -1 10 4 10
6 0 11 -4 11 -10z m-1320 -15 c0 -8 5 -15 10 -15 6 0 10 5 10 10 0 6 10 10 23
10 18 0 19 -2 7 -10 -12 -8 -10 -10 10 -11 17 -1 19 -3 8 -6 -24 -6 -23 -24 2
-30 11 -3 20 -14 20 -24 0 -11 6 -19 14 -19 8 0 22 -10 30 -22 11 -15 19 -18
28 -11 7 5 24 6 38 2 l25 -7 -22 -7 c-21 -7 -34 -45 -15 -45 13 1 42 27 42 38
0 7 15 10 41 8 31 -3 39 0 35 10 -4 10 3 14 24 14 17 0 30 4 30 9 0 5 8 11 18
15 9 3 25 11 35 18 37 28 77 -37 55 -90 -6 -15 -12 -34 -12 -42 -1 -10 -10
-14 -28 -13 -24 1 -26 -1 -18 -25 4 -15 13 -40 19 -56 13 -33 5 -49 -12 -26
-21 27 -87 60 -122 60 -20 0 -35 6 -39 15 -3 9 0 15 9 15 8 0 15 4 15 9 0 20
-21 22 -55 5 -33 -15 -37 -15 -54 0 -9 9 -23 16 -30 16 -6 0 -17 11 -23 25 -9
19 -14 22 -25 13 -7 -6 -16 -8 -20 -4 -3 3 -15 -2 -25 -11 -17 -15 -21 -15
-29 -3 -8 13 -11 12 -20 -2 -5 -10 -14 -18 -19 -18 -6 0 -10 8 -10 18 -1 13
-4 12 -14 -7 -10 -19 -23 -24 -61 -27 -26 -1 -52 -9 -56 -16 -6 -9 -9 -9 -9
-1 0 14 28 43 42 43 5 0 8 7 4 15 -7 20 9 19 30 -2 17 -17 17 -16 11 9 -6 22
-4 25 12 21 15 -4 19 2 23 31 4 38 0 44 -20 24 -9 -9 -15 -9 -24 0 -7 7 -19
12 -28 12 -19 0 -43 51 -34 74 7 19 18 20 45 5 11 -5 17 -15 13 -22 -3 -7 3
-2 13 10 10 12 29 23 43 26 14 2 28 5 33 6 4 0 7 -6 7 -14z m1360 -2 c0 -14
-2 -15 -9 -4 -7 11 -9 11 -14 0 -4 -10 -6 -9 -6 4 -1 9 6 17 14 17 8 0 15 -8
15 -17z m-2485 -3 c3 -5 -3 -10 -15 -10 -12 0 -18 5 -15 10 3 6 10 10 15 10 5
0 12 -4 15 -10z m-248 -26 c-3 -3 -12 -4 -19 -1 -8 3 -5 6 6 6 11 1 17 -2 13
-5z m167 -29 c-3 -7 -13 -12 -22 -10 -9 2 -21 4 -26 4 -6 1 -1 7 9 15 22 16
46 11 39 -9z m201 -55 c23 -33 26 -46 23 -106 l-3 -69 -28 60 c-15 33 -37 77
-47 97 -11 20 -20 51 -20 69 l0 32 25 -23 c13 -12 36 -39 50 -60z m-325 66 c0
-3 -4 -8 -10 -11 -5 -3 -10 -1 -10 4 0 6 5 11 10 11 6 0 10 -2 10 -4z m655 -5
c-3 -5 -1 -12 5 -16 5 -3 10 -1 10 6 0 8 5 7 17 -2 9 -8 19 -12 22 -9 3 3 7
-12 9 -32 2 -21 0 -38 -5 -38 -4 0 -7 -20 -5 -45 3 -30 -1 -49 -11 -60 -20
-20 -27 -19 -27 3 0 9 -6 29 -14 43 -15 30 -18 79 -5 79 5 0 9 4 9 10 0 5 -6
7 -13 4 -8 -3 -12 4 -12 19 1 23 12 47 21 47 3 0 3 -4 -1 -9z m283 -9 c5 -16
-9 -14 -33 4 -19 14 -19 14 5 11 13 -2 26 -9 28 -15z m-708 -22 c0 -5 -8 -10
-17 -10 -15 0 -16 2 -3 10 19 12 20 12 20 0z m-280 -11 c23 -1 22 -2 -5 -8
-16 -4 -31 -4 -33 0 -1 3 -15 4 -30 2 -21 -4 -24 -2 -12 6 8 6 24 9 35 6 11
-2 31 -5 45 -6z m2733 -9 c-3 -11 -9 -20 -15 -20 -5 0 -4 9 2 20 6 11 12 20
14 20 2 0 2 -9 -1 -20z m-2640 3 c-7 -2 -19 -2 -25 0 -7 3 -2 5 12 5 14 0 19
-2 13 -5z m144 -10 c-9 -2 -14 -9 -11 -15 4 -7 2 -8 -5 -4 -15 10 -4 26 17 25
15 -1 15 -2 -1 -6z m-187 -15 c0 -4 -13 -8 -30 -8 -16 0 -30 4 -30 8 0 5 14 9
30 9 17 0 30 -4 30 -9z m30 2 c0 -5 -2 -10 -4 -10 -3 0 -8 5 -11 10 -3 6 -1
10 4 10 6 0 11 -4 11 -10z m90 6 c0 -3 -4 -8 -10 -11 -5 -3 -10 -1 -10 4 0 6
5 11 10 11 6 0 10 -2 10 -4z m140 -17 c0 -6 -4 -7 -10 -4 -5 3 -10 11 -10 16
0 6 5 7 10 4 6 -3 10 -11 10 -16z m584 -4 c-18 -14 -18 -14 9 -15 17 0 27 -5
27 -15 0 -8 -4 -15 -10 -15 -5 0 -10 5 -10 10 0 6 -7 10 -15 10 -10 0 -15 -10
-15 -30 0 -40 -16 -39 -22 2 -5 32 18 68 44 68 6 0 3 -7 -8 -15z m51 5 c3 -6
-1 -7 -9 -4 -18 7 -21 14 -7 14 6 0 13 -4 16 -10z m-872 -22 c15 -6 27 -14 27
-19 0 -13 -14 -11 -36 6 -10 8 -36 15 -56 15 -20 0 -39 4 -42 9 -7 11 70 3
107 -11z m2608 4 c-7 -2 -18 1 -23 6 -8 8 -4 9 13 5 13 -4 18 -8 10 -11z
m-2362 -36 c26 -41 27 -53 4 -36 -10 7 -3 -1 15 -18 18 -17 34 -41 34 -54 1
-13 8 -32 15 -43 7 -11 13 -28 13 -39 0 -18 -2 -17 -20 4 -18 21 -24 34 -22
51 1 4 -8 5 -18 2 -11 -3 -20 0 -20 6 0 6 5 10 11 9 6 -2 14 4 16 12 4 12 3
12 -5 1 -7 -9 -12 -10 -16 -2 -12 19 -27 1 -20 -22 3 -12 3 -19 -1 -15 -4 4
-9 24 -12 43 -3 28 0 35 9 29 10 -5 11 -4 1 7 -7 7 -13 24 -13 37 0 13 -4 21
-9 18 -5 -3 -20 3 -32 15 -13 11 -19 18 -13 15 6 -3 22 -7 37 -10 19 -3 24 -1
20 10 -10 26 5 15 26 -20z m516 4 c-3 -5 -14 -10 -23 -10 -15 0 -15 2 -2 10
20 13 33 13 25 0z m-985 -4 c0 -3 -4 -8 -10 -11 -5 -3 -10 -1 -10 4 0 6 5 11
10 11 6 0 10 -2 10 -4z m1066 -19 c8 3 14 0 14 -6 0 -7 -7 -14 -15 -17 -22 -9
-18 -23 5 -17 14 4 20 14 20 34 0 16 4 29 9 29 8 0 4 -67 -4 -78 -1 -1 -15 -4
-31 -5 -31 -4 -31 -5 -24 68 2 16 3 17 7 3 2 -10 10 -15 19 -11z m1704 -24 c0
-12 -4 -25 -10 -28 -6 -4 -10 11 -10 37 0 31 3 39 10 28 5 -8 10 -25 10 -37z
m-2473 21 c-3 -3 -12 -4 -19 -1 -8 3 -5 6 6 6 11 1 17 -2 13 -5z m-177 -14
c-19 -13 -30 -13 -30 0 0 6 10 10 23 10 18 0 19 -2 7 -10z m846 -35 c-6 -24
-12 -42 -14 -40 -7 6 9 85 17 85 4 0 3 -20 -3 -45z m-826 2 c8 -2 -5 -4 -31
-3 -34 1 -45 5 -46 18 -1 15 2 15 30 4 18 -8 39 -16 47 -19z m217 17 c-3 -3
-12 -4 -19 -1 -8 3 -5 6 6 6 11 1 17 -2 13 -5z m70 0 c-3 -3 -12 -4 -19 -1 -8
3 -5 6 6 6 11 1 17 -2 13 -5z m1333 -14 c8 -5 12 -11 9 -14 -3 -3 -14 1 -25 9
-21 16 -8 20 16 5z m-1527 -7 c-7 -2 -19 -2 -25 0 -7 3 -2 5 12 5 14 0 19 -2
13 -5z m112 -11 c-3 -3 -11 0 -18 7 -9 10 -8 11 6 5 10 -3 15 -9 12 -12z m675
2 c0 -2 -7 -4 -15 -4 -8 0 -15 4 -15 10 0 5 7 7 15 4 8 -4 15 -8 15 -10z
m-707 -14 c12 0 28 -4 35 -9 11 -6 10 -10 -3 -15 -10 -3 -24 -1 -32 5 -10 9
-20 9 -39 0 -20 -9 -24 -9 -18 1 15 24 29 36 32 27 2 -5 13 -9 25 -9z m481 12
c2 -4 -4 -8 -14 -8 -10 0 -16 4 -14 8 3 4 9 8 14 8 5 0 11 -4 14 -8z m363 -6
c0 -8 -6 -12 -14 -9 -7 3 -10 9 -7 14 8 14 21 11 21 -5z m47 -1 c-4 -8 -11
-15 -16 -15 -6 0 -5 6 2 15 7 8 14 15 16 15 2 0 1 -7 -2 -15z m-103 -15 c-28
-24 -51 -26 -51 -4 0 13 3 14 14 5 11 -9 17 -9 28 3 7 8 18 15 23 15 6 0 -1
-9 -14 -19z m-1086 1 c29 11 47 11 40 -2 -4 -6 -9 -8 -12 -5 -3 2 -15 1 -28
-4 -18 -7 -27 -5 -37 8 -11 15 -11 15 2 6 9 -7 23 -8 35 -3z m199 -12 c-7 -11
-111 -12 -118 0 -3 4 -4 10 -2 12 9 8 126 -3 120 -12z m181 11 c3 -5 1 -10 -4
-10 -6 0 -11 5 -11 10 0 6 2 10 4 10 3 0 8 -4 11 -10z m533 -13 c6 3 12 0 12
-6 0 -6 -4 -10 -9 -8 -5 1 -16 -7 -24 -17 -19 -25 -47 -14 -47 18 0 22 3 24
28 17 15 -4 33 -6 40 -4z m54 -9 c-7 -7 -12 -8 -12 -2 0 14 12 26 19 19 2 -3
-1 -11 -7 -17z m-509 -28 c9 0 19 -5 23 -12 4 -7 3 -8 -4 -4 -7 4 -12 2 -12
-3 0 -6 4 -11 9 -11 11 0 22 -40 15 -52 -3 -5 -10 -5 -16 -2 -6 4 -5 10 3 15
11 7 10 9 -3 9 -10 0 -18 -4 -18 -10 0 -5 -5 -10 -11 -10 -5 0 -7 4 -4 10 8
12 -12 49 -39 72 -19 16 -19 17 -2 11 15 -5 17 -3 11 8 -5 8 -1 7 12 -3 11
-10 27 -18 36 -18z m-413 4 c0 -2 -7 -4 -15 -4 -8 0 -15 4 -15 10 0 5 7 7 15
4 8 -4 15 -8 15 -10z m188 10 c40 -11 23 -23 -25 -17 -27 2 -58 6 -70 7 -12 1
-25 5 -29 9 -9 8 92 9 124 1z m-261 -61 c-3 -10 -5 -2 -5 17 0 19 2 27 5 18 2
-10 2 -26 0 -35z m28 37 c-3 -5 4 -10 17 -9 13 0 35 -3 51 -7 17 -4 27 -2 27
5 0 6 -10 11 -22 11 -12 0 -19 3 -15 6 3 3 20 3 38 -1 31 -7 32 -8 14 -21 -17
-13 -14 -13 28 -8 32 5 47 3 47 -4 0 -7 -12 -10 -30 -8 -16 2 -30 -1 -30 -5 0
-9 49 -14 98 -11 12 0 22 -4 22 -10 0 -7 16 -9 45 -5 26 4 47 2 51 -4 6 -11
-311 -8 -322 4 -3 3 -12 3 -20 0 -8 -3 -14 -1 -14 5 0 13 47 21 58 10 6 -6 25
-7 43 -3 27 6 30 9 15 17 -11 6 -22 6 -32 -2 -11 -10 -14 -9 -14 4 0 12 -9 16
-35 16 -24 0 -35 5 -35 15 0 8 5 15 11 15 5 0 7 -4 4 -10z m2086 -12 c10 -18
9 -20 -6 -15 -9 4 -23 7 -31 7 -8 0 -11 6 -8 15 9 22 31 18 45 -7z m-1791 5
c0 -5 -8 -17 -17 -28 -14 -18 -15 -18 -9 -1 5 14 2 17 -9 12 -8 -3 -15 -1 -15
3 0 10 17 19 38 20 6 1 12 -2 12 -6z m610 -2 c0 -6 -4 -13 -10 -16 -16 -10
-11 -21 10 -21 11 0 20 6 20 14 0 17 17 7 31 -20 7 -13 7 -18 1 -14 -6 3 -13
2 -16 -3 -4 -5 -17 -8 -30 -5 -17 3 -26 -3 -34 -22 -7 -14 -12 -27 -12 -30 0
-6 43 19 51 29 3 4 10 -8 16 -27 8 -27 8 -39 -4 -56 -8 -11 -19 -18 -24 -15
-5 4 -9 3 -9 -2 -1 -4 -11 -21 -24 -36 l-23 -29 7 48 c4 26 4 73 1 105 -6 48
-4 58 11 68 10 6 18 18 18 26 0 8 5 15 10 15 6 0 10 -4 10 -9z m498 -58 l25
-23 -47 0 c-47 0 -62 -14 -26 -25 26 -8 26 -35 -1 -35 -13 0 -23 8 -26 20 -3
11 -16 23 -29 26 -21 5 -23 11 -22 50 2 35 6 44 23 46 20 3 57 -18 103 -59z
m-278 27 c-9 -6 -9 -12 -1 -29 7 -12 11 -46 9 -76 -3 -45 -7 -56 -26 -65 -13
-5 -21 -14 -18 -19 9 -14 -247 -221 -272 -221 -28 0 -6 20 83 79 55 37 95 70
95 80 0 10 3 12 8 4 5 -7 20 0 47 23 23 19 34 34 25 34 -13 0 -13 2 -1 9 11 7
4 18 -30 50 -24 22 -47 41 -50 41 -15 0 -16 26 -2 39 12 11 14 10 11 -5 -2
-11 2 -18 8 -17 7 1 15 -9 18 -22 4 -14 11 -25 16 -25 12 0 12 2 0 34 -13 34
6 35 22 1 6 -14 15 -25 19 -25 15 0 15 26 0 59 -15 33 -15 33 14 58 20 17 30
22 33 13 3 -7 -1 -16 -8 -20z m540 -18 c17 -33 32 -47 47 -48 12 -1 30 -5 40
-9 10 -4 32 -11 49 -15 27 -6 34 -4 45 16 7 13 16 24 21 24 4 0 8 7 8 16 0 8
8 15 18 14 24 -3 62 11 62 22 0 5 5 6 10 3 13 -8 13 -70 0 -132 -5 -26 -15
-74 -21 -105 -12 -66 -26 -78 -21 -18 3 32 1 40 -12 40 -9 0 -16 -5 -16 -11 0
-8 -5 -8 -15 1 -8 7 -15 9 -15 4 0 -5 -5 -1 -11 9 -5 9 -16 17 -23 17 -18 0
-66 24 -66 33 0 15 -58 7 -64 -9 -6 -15 -9 -15 -29 2 -26 24 -93 48 -107 39
-6 -4 -10 5 -10 20 0 18 -4 24 -12 19 -10 -6 -10 -4 0 7 6 7 12 21 12 31 0 10
5 18 10 18 6 0 10 5 10 12 0 17 31 48 49 48 9 0 27 -21 41 -48z m-650 24 c0
-2 -7 -9 -15 -16 -13 -11 -14 -10 -9 4 5 14 24 23 24 12z m40 -19 c0 -14 -19
-37 -31 -37 -4 0 -10 7 -13 16 -3 8 -2 12 4 9 6 -3 13 1 16 9 7 19 24 21 24 3z
m-530 -7 c0 -5 -2 -10 -4 -10 -3 0 -8 5 -11 10 -3 6 -1 10 4 10 6 0 11 -4 11
-10z m1540 -32 c0 -10 4 -18 10 -18 6 0 6 -9 0 -24 -5 -13 -6 -26 -4 -29 3 -3
-4 -23 -16 -46 -16 -33 -26 -41 -48 -41 -22 0 -28 5 -30 25 -1 19 7 31 38 50
44 28 53 61 23 90 -13 14 -14 18 -2 25 15 10 29 -5 29 -32z m-1544 -3 c-20
-15 -21 -26 -1 -19 20 8 20 -22 -1 -34 -14 -8 -14 -10 1 -25 24 -25 3 -21 -24
4 -17 16 -20 24 -10 35 9 11 8 14 -4 14 -9 0 -21 9 -28 21 -9 18 -8 20 9 15
11 -4 23 -3 26 3 3 5 16 7 27 4 20 -6 20 -7 5 -18z m-476 -5 c27 0 51 -4 55
-9 6 -10 -43 -13 -87 -5 -18 4 -28 12 -27 22 0 11 2 12 6 5 3 -8 24 -13 53
-13z m247 4 c-3 -3 -12 -4 -19 -1 -8 3 -5 6 6 6 11 1 17 -2 13 -5z m-63 -13
c3 -5 -4 -11 -17 -15 -36 -10 -97 -7 -97 5 0 5 4 8 8 5 5 -3 22 -1 38 4 39 11
62 12 68 1z m998 -33 c-8 -32 -26 -26 -36 12 -6 21 -5 22 4 7 14 -21 31 -13
23 11 -4 12 -3 14 5 7 7 -6 9 -21 4 -37z m-947 22 c3 -6 -1 -7 -9 -4 -18 7
-21 14 -7 14 6 0 13 -4 16 -10z m1007 -19 c3 -19 0 -27 -7 -24 -7 2 -10 15 -7
29 6 31 9 30 14 -5z m185 13 c-3 -3 -12 -4 -19 -1 -8 3 -5 6 6 6 11 1 17 -2
13 -5z m43 2 c0 -11 -19 -15 -25 -6 -3 5 1 10 9 10 9 0 16 -2 16 -4z m-1124
-17 c4 -8 0 -9 -15 -4 -15 5 -21 2 -21 -9 0 -9 3 -16 8 -17 4 0 18 -2 32 -4
36 -4 60 11 32 19 -28 9 -29 26 -2 21 29 -6 41 -15 35 -26 -4 -5 -2 -9 2 -9 5
0 22 -12 39 -27 22 -21 30 -38 33 -70 2 -35 -1 -43 -14 -43 -15 0 -15 -1 0
-16 12 -13 16 -34 14 -94 -2 -88 -10 -96 -80 -75 -33 9 -35 12 -34 53 l1 42
-38 0 c-35 0 -44 7 -39 34 1 5 -4 13 -11 18 -8 6 4 8 34 6 52 -3 58 4 58 69 0
44 -9 63 -31 63 -10 0 -19 4 -19 9 0 5 -8 11 -19 14 -12 3 -18 13 -18 31 0 21
4 26 23 26 12 0 26 -5 30 -11z m-306 -3 c0 -11 -19 -15 -25 -6 -3 5 1 10 9 10
9 0 16 -2 16 -4z m65 -6 c8 -13 -5 -13 -25 0 -13 8 -13 10 2 10 9 0 20 -4 23
-10z m1388 -20 c-3 -12 -8 -19 -11 -16 -5 6 5 36 12 36 2 0 2 -9 -1 -20z
m-553 0 c0 -5 -4 -10 -10 -10 -5 0 -10 5 -10 10 0 6 5 10 10 10 6 0 10 -4 10
-10z m-877 -13 c-2 -4 6 -5 20 -2 15 4 28 2 33 -6 5 -8 3 -11 -7 -7 -8 3 -26
0 -39 -7 -13 -7 -30 -11 -37 -8 -8 3 -13 2 -12 -3 4 -23 -2 -34 -18 -34 -16 1
-16 2 1 15 15 11 16 15 5 19 -8 2 -21 7 -29 9 -8 3 5 6 30 7 l45 2 -60 13 -60
13 67 -2 c36 0 64 -5 61 -9z m82 3 c-3 -5 1 -10 10 -10 9 0 13 5 10 10 -3 6 1
10 9 10 9 0 16 -4 16 -9 0 -12 -37 -24 -50 -16 -13 8 -13 25 1 25 5 0 7 -4 4
-10z m123 -19 c34 3 53 -1 47 -11 -3 -5 -26 -10 -50 -10 -24 0 -47 5 -50 10
-3 6 -1 10 6 10 7 0 4 7 -7 16 -16 14 -15 14 9 0 15 -10 36 -16 45 -15z m697
0 c-3 -12 -11 -19 -16 -16 -5 4 -3 14 3 25 15 24 22 19 13 -9z m1825 15 c0 -8
3 -23 7 -33 6 -16 5 -16 -11 -4 -9 8 -22 23 -27 33 -8 15 -6 18 11 18 11 0 20
-6 20 -14z m-1868 -28 c-7 -7 -12 -8 -12 -2 0 14 12 26 19 19 2 -3 -1 -11 -7
-17z m785 -47 c22 -25 33 -58 14 -47 -5 4 -11 1 -13 -5 -6 -19 -42 -1 -55 27
-10 22 -9 30 5 49 9 13 19 18 21 12 2 -6 15 -23 28 -36z m1063 34 c10 -12 10
-15 -2 -15 -8 0 -15 7 -15 15 0 8 1 15 2 15 2 0 8 -7 15 -15z m-2700 -5 c0 -5
-5 -10 -11 -10 -5 0 -7 5 -4 10 3 6 8 10 11 10 2 0 4 -4 4 -10z m100 -6 c0 -2
-21 -4 -46 -4 -25 0 -43 4 -40 8 4 7 86 4 86 -4z m195 -4 c3 -5 2 -10 -4 -10
-5 0 -17 -3 -25 -6 -12 -5 -15 -2 -10 10 7 18 29 21 39 6z m-87 -14 c19 -11
14 -21 -10 -21 -13 0 -30 7 -39 16 -15 15 -14 16 11 14 15 -1 32 -5 38 -9z
m2532 -15 c15 -28 13 -33 -10 -21 -11 6 -20 17 -20 25 0 21 17 18 30 -4z
m-2720 -10 c0 -11 -51 -21 -65 -13 -5 3 1 9 15 13 36 10 50 10 50 0z m-90 -9
c0 -13 -12 -22 -22 -16 -10 6 -1 24 13 24 5 0 9 -4 9 -8z m134 -7 c3 -10 19
-15 46 -15 27 0 39 -4 34 -11 -9 -16 -114 15 -114 33 0 14 28 8 34 -7z m226 5
c19 -12 12 -17 -29 -22 -23 -2 -36 2 -39 11 -3 8 0 11 7 7 6 -4 11 -2 11 3 0
13 30 14 50 1z m-83 -6 c-3 -3 -12 -4 -19 -1 -8 3 -5 6 6 6 11 1 17 -2 13 -5z
m2498 -4 c3 -5 1 -10 -4 -10 -6 0 -11 5 -11 10 0 6 2 10 4 10 3 0 8 -4 11 -10z
m-1737 -12 c-6 -18 -25 -20 -31 -3 -5 10 0 15 14 15 12 0 19 -5 17 -12z
m-1200 -24 c0 -18 -3 -22 -9 -13 -11 18 -11 39 0 39 5 0 9 -12 9 -26z m235
-16 c-6 -11 -83 -9 -108 2 -14 6 -4 9 38 9 47 1 57 4 58 19 0 14 2 14 8 -3 5
-11 7 -23 4 -27z m207 32 c0 -5 -4 -10 -10 -10 -5 0 -10 5 -10 10 0 6 5 10 10
10 6 0 10 -4 10 -10z m2540 -19 c0 -4 -7 -8 -15 -8 -8 0 -15 6 -15 13 0 8 6
11 15 8 8 -4 15 -9 15 -13z m-110 -19 c0 -4 -6 -14 -12 -21 -11 -10 -10 -11 5
-6 13 6 17 2 17 -19 0 -29 -3 -30 -30 -16 -19 10 -17 50 2 50 5 0 6 5 3 10 -3
6 -1 10 4 10 6 0 11 -4 11 -8z m-2507 -19 c-7 -2 -19 -2 -25 0 -7 3 -2 5 12 5
14 0 19 -2 13 -5z m-377 -29 c9 4 14 -2 14 -17 0 -16 -3 -18 -9 -8 -6 9 -11
10 -15 2 -4 -6 -4 -15 -1 -21 3 -5 1 -10 -5 -10 -8 0 -10 9 -6 26 5 17 3 23
-4 19 -12 -7 -13 -3 -3 22 7 17 8 17 11 0 2 -11 9 -16 18 -13z m194 -8 c0 -2
-7 -6 -15 -10 -8 -3 -15 -1 -15 4 0 6 7 10 15 10 8 0 15 -2 15 -4z m60 -6 c0
-5 -4 -10 -10 -10 -5 0 -10 5 -10 10 0 6 5 10 10 10 6 0 10 -4 10 -10z m214
-21 c-5 -9 15 -13 49 -11 9 1 17 -3 17 -8 0 -6 -8 -10 -17 -10 -24 1 -93 17
-100 23 -11 12 8 24 32 20 13 -3 22 -9 19 -14z m56 11 c12 -8 9 -10 -12 -10
-16 0 -28 5 -28 10 0 13 20 13 40 0z m2340 -20 c0 -5 -2 -10 -4 -10 -3 0 -8 5
-11 10 -3 6 -1 10 4 10 6 0 11 -4 11 -10z m-2650 -4 c0 -3 -4 -8 -10 -11 -5
-3 -10 -1 -10 4 0 6 5 11 10 11 6 0 10 -2 10 -4z m2680 -6 c0 -5 -2 -10 -4
-10 -3 0 -8 5 -11 10 -3 6 -1 10 4 10 6 0 11 -4 11 -10z m-2657 -15 c-3 -9 -8
-14 -10 -11 -3 3 -2 9 2 15 9 16 15 13 8 -4z m51 -30 c-27 -27 -44 -34 -24
-10 10 12 9 15 -4 15 -10 0 -15 4 -11 10 3 5 12 7 19 4 8 -3 17 0 21 5 3 6 10
9 15 6 5 -3 -2 -17 -16 -30z m156 19 c0 -2 -7 -4 -15 -4 -8 0 -15 4 -15 10 0
5 7 7 15 4 8 -4 15 -8 15 -10z m1427 0 c12 -32 -65 -48 -93 -20 -24 24 -16 31
36 33 38 2 52 -2 57 -13z m1060 0 c-3 -3 -12 -4 -19 -1 -8 3 -5 6 6 6 11 1 17
-2 13 -5z m-2367 -24 c0 -5 15 -10 33 -10 18 0 42 -7 53 -16 18 -15 17 -15
-18 -10 -21 2 -38 1 -38 -5 0 -5 -4 -9 -10 -9 -5 0 -10 8 -10 18 0 13 -2 14
-9 4 -6 -10 -10 -7 -13 12 -3 14 -1 26 3 26 5 0 9 -4 9 -10z m2313 -18 c-4 -9
-13 -23 -20 -30 -11 -11 -13 -10 -13 8 0 11 7 23 15 26 8 4 12 11 8 17 -3 6
-1 7 5 3 6 -4 8 -14 5 -24z m-2470 11 c-7 -2 -19 -2 -25 0 -7 3 -2 5 12 5 14
0 19 -2 13 -5z m524 1 c-3 -3 -12 -4 -19 -1 -8 3 -5 6 6 6 11 1 17 -2 13 -5z
m1050 -26 c-3 -8 -6 -5 -6 6 -1 11 2 17 5 13 3 -3 4 -12 1 -19z m528 4 c-3 -3
-11 0 -18 7 -9 10 -8 11 6 5 10 -3 15 -9 12 -12z m433 -6 c4 -17 2 -17 -22 -1
-32 21 -33 26 -3 21 12 -1 24 -11 25 -20z m-2453 -39 c24 -3 22 -4 -12 -6 -35
-1 -41 2 -36 15 3 9 8 11 12 6 3 -6 20 -12 36 -15z m155 13 c8 -5 11 -12 7
-16 -4 -4 -15 0 -24 9 -18 18 -8 23 17 7z m-350 -15 c0 -19 -11 -19 -36 0 -18
14 -18 14 9 15 17 0 27 -5 27 -15z m112 -15 c26 0 15 -11 -27 -28 -26 -11 -27
-10 -13 1 21 16 6 36 -26 38 -18 1 -17 2 4 8 17 5 28 3 33 -6 4 -7 18 -13 29
-13z m178 15 c5 3 29 -9 52 -26 l43 -31 -40 7 c-22 4 -49 8 -60 9 -27 1 -40
23 -24 43 9 10 15 11 17 4 2 -6 8 -9 12 -6z m2067 -7 c-3 -8 -6 -5 -6 6 -1 11
2 17 5 13 3 -3 4 -12 1 -19z m-2113 -2 c-8 -20 -35 -29 -48 -15 -8 9 -6 10 7
6 11 -4 20 -1 23 8 4 8 10 15 15 15 4 0 6 -6 3 -14z m-319 -16 c-3 -5 -10 -10
-16 -10 -5 0 -9 5 -9 10 0 6 7 10 16 10 8 0 12 -4 9 -10z m242 -6 c-3 -3 -12
-4 -19 -1 -8 3 -5 6 6 6 11 1 17 -2 13 -5z m-182 -14 c-3 -5 -14 -10 -23 -9
-14 0 -13 2 3 9 27 11 27 11 20 0z m185 -20 c0 -4 -11 -10 -25 -12 -21 -4 -23
-3 -14 13 9 17 39 16 39 -1z m63 13 c-7 -2 -19 -2 -25 0 -7 3 -2 5 12 5 14 0
19 -2 13 -5z m40 -22 c-4 -17 -8 -18 -24 -8 -18 11 -18 12 -1 19 27 11 30 9
25 -11z m78 9 c13 -7 19 -21 19 -45 0 -46 -9 -68 -24 -56 -6 6 -31 11 -54 12
-29 2 -41 7 -38 15 3 8 -1 11 -10 7 -7 -3 -14 0 -14 6 0 6 5 12 10 12 20 3 25
4 38 12 7 5 10 13 7 18 -16 26 28 39 66 19z m-144 -16 c-3 -3 -12 -4 -19 -1
-8 3 -5 6 6 6 11 1 17 -2 13 -5z m2446 -7 c-5 -11 -7 -11 -28 1 -19 11 -18 12
5 8 14 -1 24 -6 23 -9z m-2709 -15 c6 -11 -60 -9 -70 1 -4 4 9 7 29 7 20 0 38
-4 41 -8z m96 -8 c0 -2 -7 -4 -15 -4 -8 0 -15 4 -15 10 0 5 7 7 15 4 8 -4 15
-8 15 -10z m2790 -18 c0 -3 -4 -8 -10 -11 -5 -3 -10 -1 -10 4 0 6 5 11 10 11
6 0 10 -2 10 -4z m-2817 -19 c-27 -15 -27 -15 -13 -32 15 -17 7 -19 -21 -5
-13 8 -19 7 -19 0 0 -7 -8 -9 -21 -5 -15 5 -19 4 -15 -4 4 -6 3 -11 -3 -11 -5
0 -9 9 -8 20 1 14 9 20 27 21 21 1 22 2 5 7 l-20 5 20 7 c11 4 35 7 53 7 26
-1 29 -3 15 -10z m2574 -2 c0 -8 -4 -12 -9 -9 -5 3 -6 10 -3 15 9 13 12 11 12
-6z m203 5 c-8 -5 -19 -10 -25 -10 -5 0 -3 5 5 10 8 5 20 10 25 10 6 0 3 -5
-5 -10z m-51 -16 c10 -9 -55 -3 -69 6 -10 6 -2 7 25 3 22 -3 42 -7 44 -9z
m-2842 -10 c-3 -3 -12 -4 -19 -1 -8 3 -5 6 6 6 11 1 17 -2 13 -5z m448 -13
c20 -4 26 -9 17 -14 -7 -5 -10 -12 -7 -17 7 -12 -20 -19 -36 -9 -8 5 -9 9 -4
10 6 1 -3 4 -19 8 -40 8 -47 31 -9 30 15 -1 42 -4 58 -8z m-221 -26 c-10 -8
-30 -14 -44 -14 -22 0 -21 2 10 13 48 18 57 19 34 1z m-94 -5 c0 -5 -10 -10
-22 -10 -19 0 -20 2 -8 10 19 13 30 13 30 0z m246 -22 c-9 -5 -14 -14 -10 -19
4 -6 13 -4 25 7 11 9 22 15 25 11 10 -10 -5 -25 -36 -36 -30 -10 -31 -10 -28
23 1 27 5 32 21 28 17 -4 18 -6 3 -14z m-336 1 c0 -7 16 -8 45 -3 50 7 59 -1
19 -16 -15 -6 -23 -15 -19 -22 4 -7 0 -5 -8 5 -9 10 -31 18 -56 20 -40 2 -48
7 -34 20 10 11 53 8 53 -4z m195 -9 c4 -6 -6 -10 -22 -10 -22 0 -25 2 -13 10
19 12 27 12 35 0z m2439 -19 c12 -13 14 -21 6 -26 -6 -4 -12 -5 -13 -4 -1 2
-8 14 -15 27 -15 27 -2 29 22 3z m-2344 -12 c11 -7 2 -8 -30 -4 -32 5 -54 2
-75 -9 l-30 -16 48 0 c27 0 46 -4 43 -9 -3 -4 -37 -8 -75 -9 -38 0 -84 -3
-103 -7 l-33 -7 25 18 c14 10 28 23 32 28 5 7 11 7 20 -2 17 -17 39 -15 32 3
-4 8 -11 12 -17 8 -5 -3 -7 -1 -4 4 9 14 148 16 167 2z m132 -54 c-2 -33 -5
-62 -7 -64 -2 -2 -17 -4 -33 -5 -16 -1 -36 -7 -44 -14 -15 -12 -28 -7 -28 11
0 5 8 6 17 3 13 -5 11 0 -6 18 -23 24 -23 26 -5 26 18 1 18 1 2 11 -10 5 -18
14 -18 18 0 17 76 61 100 59 24 -3 25 -5 22 -63z m-477 45 c3 -5 1 -10 -4 -10
-6 0 -11 5 -11 10 0 6 2 10 4 10 3 0 8 -4 11 -10z m35 0 c0 -5 -2 -10 -4 -10
-3 0 -8 5 -11 10 -3 6 -1 10 4 10 6 0 11 -4 11 -10z m10 -30 c0 -5 -7 -7 -15
-4 -8 4 -15 8 -15 10 0 2 7 4 15 4 8 0 15 -4 15 -10z m2796 -16 c-4 -9 -9 -15
-11 -12 -3 3 -3 13 1 22 4 9 9 15 11 12 3 -3 3 -13 -1 -22z m-2531 -14 c-3 -5
-11 -10 -16 -10 -6 0 -7 5 -4 10 3 6 11 10 16 10 6 0 7 -4 4 -10z m-288 -6
c-3 -3 -12 -4 -19 -1 -8 3 -5 6 6 6 11 1 17 -2 13 -5z m226 -8 c3 -8 -1 -17
-9 -20 -24 -9 -54 -7 -54 4 0 6 7 10 15 10 8 0 15 5 15 10 0 15 27 12 33 -4z
m2568 -19 c-10 -9 -11 -8 -5 6 3 10 9 15 12 12 3 -3 0 -11 -7 -18z m-2461 -11
c0 -8 -8 -14 -19 -13 -11 0 -17 6 -14 14 7 18 33 17 33 -1z m2430 -6 c0 -5 -5
-10 -11 -10 -5 0 -7 5 -4 10 3 6 8 10 11 10 2 0 4 -4 4 -10z m-2523 -6 c-3 -3
-12 -4 -19 -1 -8 3 -5 6 6 6 11 1 17 -2 13 -5z m-122 -14 c-3 -5 -12 -10 -18
-10 -7 0 -6 4 3 10 19 12 23 12 15 0z m333 -36 c-1 -19 -5 -34 -9 -34 -13 0
-17 24 -7 44 7 12 7 16 0 12 -6 -3 -18 -3 -28 1 -16 6 -16 7 2 13 31 11 43 0
42 -36z m-283 16 c0 -8 4 -21 8 -27 7 -12 2 -15 -20 -12 -5 1 -7 5 -5 10 1 5
-7 9 -18 9 -18 0 -19 2 -8 20 15 23 43 23 43 0z m45 10 c0 -5 -2 -10 -4 -10
-3 0 -8 5 -11 10 -3 6 -1 10 4 10 6 0 11 -4 11 -10z m-160 -46 c0 -2 -7 -4
-15 -4 -8 0 -15 4 -15 10 0 5 7 7 15 4 8 -4 15 -8 15 -10z m157 -20 c-3 -3
-12 -4 -19 -1 -8 3 -5 6 6 6 11 1 17 -2 13 -5z m143 -15 c0 -12 -8 -28 -17
-35 -11 -8 -13 -13 -5 -14 6 0 12 -9 12 -21 0 -12 -5 -19 -12 -16 -8 2 -12 20
-11 46 1 22 -2 41 -8 41 -5 0 -9 5 -9 10 0 6 11 10 25 10 19 0 25 -5 25 -21z
m100 -4 c0 -8 -4 -15 -10 -15 -5 0 -10 7 -10 15 0 8 5 15 10 15 6 0 10 -7 10
-15z m-294 -20 c2 -10 -7 -15 -27 -15 -16 0 -29 5 -29 11 0 6 9 8 20 4 11 -4
20 -3 19 2 -1 4 -1 12 0 17 1 13 14 -2 17 -19z m51 9 c-3 -3 -12 -4 -19 -1 -8
3 -5 6 6 6 11 1 17 -2 13 -5z m235 -46 c-9 -9 -12 -7 -12 12 0 19 3 21 12 12
9 -9 9 -15 0 -24z m2768 16 c0 -2 -7 -4 -15 -4 -8 0 -15 4 -15 10 0 5 7 7 15
4 8 -4 15 -8 15 -10z m-2982 1 c-10 -11 -48 -14 -53 -4 -4 5 8 9 26 9 18 0 30
-2 27 -5z m-174 -63 c2 -4 -5 -9 -17 -9 -17 -2 -19 0 -7 7 18 12 18 12 24 2z
m109 1 c-7 -2 -19 -2 -25 0 -7 3 -2 5 12 5 14 0 19 -2 13 -5z m164 1 c-3 -3
-12 -4 -19 -1 -8 3 -5 6 6 6 11 1 17 -2 13 -5z m-94 -26 c12 -11 12 -15 -2
-25 -14 -10 -12 -11 9 -7 22 4 23 3 5 -5 -12 -6 -15 -10 -6 -10 8 -1 11 -4 8
-7 -4 -4 -13 -1 -21 5 -8 7 -20 10 -25 6 -7 -3 -8 0 -5 9 3 9 11 16 17 16 6 0
8 3 5 6 -6 6 -49 -15 -59 -29 -8 -11 -62 -5 -72 8 -5 6 -7 1 -4 -12 3 -12 0
-24 -7 -27 -7 -3 -6 -8 4 -15 12 -8 5 -11 -29 -11 -24 0 -42 3 -38 6 3 3 8 5
12 4 8 -2 45 40 45 50 0 9 -25 20 -43 20 -7 0 -6 -5 3 -11 10 -7 11 -9 2 -7
-19 5 -14 22 9 30 14 6 18 4 14 -5 -4 -6 0 -4 8 6 17 21 28 22 21 2 -6 -16 4
-15 51 5 49 21 75 20 98 -2z m3058 4 c1 -9 2 -26 3 -37 1 -11 6 -19 12 -18 6
1 11 -4 11 -12 0 -12 -6 -11 -29 3 -19 11 -26 22 -23 33 3 10 0 21 -6 25 -8 4
-9 3 -5 -4 4 -7 2 -12 -3 -12 -6 0 -11 8 -11 18 0 24 49 29 51 4z m-3334 -34
c-3 -8 -6 -5 -6 6 -1 11 2 17 5 13 3 -3 4 -12 1 -19z m383 2 c0 -5 -2 -10 -4
-10 -3 0 -8 5 -11 10 -3 6 -1 10 4 10 6 0 11 -4 11 -10z m2540 -10 c0 -11 -4
-20 -9 -20 -6 0 -9 9 -8 20 1 11 5 20 9 20 4 0 8 -9 8 -20z m230 16 c0 -3 -4
-8 -10 -11 -5 -3 -10 -1 -10 4 0 6 5 11 10 11 6 0 10 -2 10 -4z m45 -40 c22
-16 14 -46 -14 -46 -21 0 -33 22 -25 45 7 19 15 19 39 1z m-328 -18 c-3 -8 -6
-5 -6 6 -1 11 2 17 5 13 3 -3 4 -12 1 -19z m-2527 2 c0 -5 -2 -10 -4 -10 -3 0
-8 5 -11 10 -3 6 -1 10 4 10 6 0 11 -4 11 -10z m2605 -2 c5 4 5 1 1 -6 -6 -10
-11 -10 -22 -1 -8 6 -14 14 -14 16 0 3 6 0 13 -6 8 -6 18 -7 22 -3z m-2765 -7
c0 -6 -9 -9 -20 -8 -11 1 -20 5 -20 9 0 4 9 8 20 8 11 0 20 -4 20 -9z m2554
-27 c-6 -33 -3 -40 26 -65 18 -16 38 -29 45 -29 7 0 26 -7 41 -16 l29 -16 -40
7 c-77 13 -126 70 -111 130 10 39 18 30 10 -11z m511 -13 c-10 -10 -34 10 -29
24 6 14 8 13 19 -2 8 -10 12 -20 10 -22z m-3162 -8 c-7 -2 -19 -2 -25 0 -7 3
-2 5 12 5 14 0 19 -2 13 -5z m160 0 c-7 -2 -19 -2 -25 0 -7 3 -2 5 12 5 14 0
19 -2 13 -5z m-46 -9 c-3 -3 -12 -4 -19 -1 -8 3 -5 6 6 6 11 1 17 -2 13 -5z
m-52 -14 c3 -5 22 -10 41 -10 19 0 33 -4 30 -9 -3 -4 -18 -6 -33 -4 -18 3 -24
1 -15 -4 9 -7 7 -12 -10 -21 -40 -20 -83 -19 -91 2 -4 10 3 14 29 14 20 0 38
3 41 6 4 3 -4 6 -17 6 -19 0 -20 2 -10 15 14 17 26 19 35 5z m205 -6 c0 -2
-12 -4 -26 -4 -14 0 -23 4 -20 9 6 8 46 4 46 -5z m-30 -24 c0 -4 -11 -7 -25
-6 -24 1 -31 7 -19 18 7 8 44 -2 44 -12z m-310 -20 c0 -5 -4 -10 -10 -10 -5 0
-10 5 -10 10 0 6 5 10 10 10 6 0 10 -4 10 -10z m349 -5 c2 -3 -34 -5 -80 -5
-46 0 -79 4 -72 8 12 7 144 5 152 -3z m2704 5 c7 0 6 -4 -3 -10 -9 -6 -17 -5
-23 3 -6 8 -7 4 -4 -10 3 -13 1 -26 -4 -29 -5 -3 -6 -10 -3 -16 5 -7 2 -8 -6
-3 -9 6 -10 1 -6 -16 7 -23 7 -23 -8 -5 -9 11 -16 29 -16 40 0 26 30 58 48 51
7 -3 19 -5 25 -5z m107 -21 c0 -6 5 -7 10 -4 6 3 10 1 10 -4 0 -15 -22 -14
-44 2 -16 12 -16 13 3 14 12 1 21 -3 21 -8z m-2827 -6 c-7 -2 -19 -2 -25 0 -7
3 -2 5 12 5 14 0 19 -2 13 -5z m-323 -13 c0 -5 -4 -10 -10 -10 -5 0 -10 -5
-10 -11 0 -5 5 -7 10 -4 6 3 10 -1 10 -9 0 -9 -7 -16 -15 -16 -10 0 -15 10
-15 30 0 20 5 30 15 30 8 0 15 -4 15 -10z m150 -33 c0 -5 -7 -6 -16 -3 -9 3
-21 3 -27 -1 -6 -3 7 -12 29 -19 24 -7 31 -12 18 -13 -32 -2 -85 20 -81 32 2
6 14 14 28 18 13 4 17 8 9 8 -13 1 -13 2 0 11 15 10 40 -11 40 -33z m163 -7
c56 0 19 -12 -41 -14 -46 -1 -58 2 -54 12 3 10 14 12 35 8 16 -3 43 -6 60 -6z
m62 -20 c3 -5 1 -10 -4 -10 -6 0 -11 5 -11 10 0 6 2 10 4 10 3 0 8 -4 11 -10z
m1985 0 c0 -5 -5 -10 -11 -10 -5 0 -7 5 -4 10 3 6 8 10 11 10 2 0 4 -4 4 -10z
m-2360 -24 c0 -2 -7 -6 -15 -10 -8 -3 -15 -1 -15 4 0 6 7 10 15 10 8 0 15 -2
15 -4z m120 -3 c-19 -3 -38 -9 -41 -15 -4 -5 -9 -3 -12 6 -5 13 2 16 41 14 40
-1 42 -2 12 -5z m257 -18 c2 -8 5 -23 7 -32 2 -10 0 -22 -4 -28 -4 -5 -11 -21
-15 -35 -7 -24 -7 -25 9 -5 16 19 16 18 1 -12 -8 -18 -18 -33 -21 -33 -3 0 -4
35 0 78 3 42 5 81 6 86 0 13 13 -2 17 -19z m-92 -5 c3 -5 1 -10 -4 -10 -6 0
-11 5 -11 10 0 6 2 10 4 10 3 0 8 -4 11 -10z m-288 -6 c-3 -3 -12 -4 -19 -1
-8 3 -5 6 6 6 11 1 17 -2 13 -5z m143 -24 c0 -4 -12 -6 -27 -4 -16 2 -20 1
-10 -2 27 -9 20 -24 -12 -24 -24 0 -29 4 -28 20 1 11 7 20 14 20 7 0 13 4 13
10 0 6 10 5 25 -2 14 -6 25 -14 25 -18z m-155 0 c-3 -5 -1 -10 6 -10 7 0 10
-3 6 -6 -9 -9 -28 6 -22 17 4 5 8 9 11 9 3 0 2 -4 -1 -10z m208 3 c-7 -2 -19
-2 -25 0 -7 3 -2 5 12 5 14 0 19 -2 13 -5z m302 -13 c-3 -5 -11 -10 -16 -10
-6 0 -7 5 -4 10 3 6 11 10 16 10 6 0 7 -4 4 -10z m-535 -45 c0 -31 -3 -35 -25
-35 -22 0 -25 4 -25 35 0 31 3 35 25 35 22 0 25 -4 25 -35z m177 9 c-3 -3 -12
-4 -19 -1 -8 3 -5 6 6 6 11 1 17 -2 13 -5z m66 -1 c-7 -2 -19 -2 -25 0 -7 3
-2 5 12 5 14 0 19 -2 13 -5z m120 0 c-7 -2 -21 -2 -30 0 -10 3 -4 5 12 5 17 0
24 -2 18 -5z m-187 -22 c-6 -9 -76 -1 -76 8 0 4 18 5 40 3 22 -2 38 -7 36 -11z
m107 2 c-7 -2 -19 -2 -25 0 -7 3 -2 5 12 5 14 0 19 -2 13 -5z m267 -27 c0 -3
-4 -8 -10 -11 -5 -3 -10 -1 -10 4 0 6 5 11 10 11 6 0 10 -2 10 -4z m-336 -41
c3 -8 18 -16 33 -16 l28 -2 -27 -4 c-31 -5 -72 13 -63 28 9 14 22 11 29 -6z
m-51 -22 c-7 -2 -19 -2 -25 0 -7 3 -2 5 12 5 14 0 19 -2 13 -5z m2697 -62 c0
-16 -13 -7 -16 12 -1 7 -5 21 -9 32 -4 14 -2 12 9 -5 8 -14 15 -31 16 -39z
m-2545 39 c-3 -5 -10 -10 -16 -10 -5 0 -9 5 -9 10 0 6 7 10 16 10 8 0 12 -4 9
-10z m-278 -6 c-3 -3 -12 -4 -19 -1 -8 3 -5 6 6 6 11 1 17 -2 13 -5z m176 -11
c-7 -2 -19 -2 -25 0 -7 3 -2 5 12 5 14 0 19 -2 13 -5z m-76 -19 c-3 -3 -12 -4
-19 -1 -8 3 -5 6 6 6 11 1 17 -2 13 -5z m56 -31 c-7 -2 -19 -2 -25 0 -7 3 -2
5 12 5 14 0 19 -2 13 -5z m-53 -17 c0 -11 -19 -15 -25 -6 -3 5 1 10 9 10 9 0
16 -2 16 -4z m512 -121 c-42 -49 -61 -65 -127 -101 -41 -22 -97 -66 -134 -104
-63 -64 -68 -65 -27 -5 12 17 23 39 24 50 2 11 16 33 30 49 15 16 21 26 15 22
-7 -4 -13 -2 -13 3 0 11 16 16 35 11 55 -13 92 -1 134 44 14 14 30 26 38 26 7
0 13 8 13 18 0 25 12 35 21 20 5 -7 1 -21 -9 -33z m2500 -20 c-4 -41 -2 -45
30 -64 18 -11 38 -25 45 -30 7 -6 17 -11 22 -11 5 0 13 -5 16 -10 14 -23 -39
-1 -79 33 -45 37 -58 69 -45 105 12 32 15 27 11 -23z m-2409 -79 c-3 -6 -12
-19 -20 -28 -8 -9 -20 -36 -27 -59 -7 -24 -18 -45 -24 -47 -17 -5 -6 33 23 85
14 25 25 55 25 65 0 17 3 18 15 8 8 -7 12 -17 8 -24z m347 -10 c0 -3 -4 -8
-10 -11 -5 -3 -10 -1 -10 4 0 6 5 11 10 11 6 0 10 -2 10 -4z m192 -26 c-12
-21 -18 -25 -20 -14 -5 23 5 44 22 44 13 0 13 -4 -2 -30z m328 4 c0 -3 -17
-23 -39 -44 -21 -21 -41 -46 -45 -55 -3 -10 -9 -15 -13 -12 -8 8 24 55 60 90
29 27 37 32 37 21z m-1680 -25 c0 -3 -17 -18 -37 -32 -36 -25 -53 -27 -53 -5
0 6 3 8 6 5 4 -3 15 4 24 16 16 20 60 32 60 16z m117 -39 c-2 -35 -4 -37 -17
-23 -11 12 -12 17 -2 20 6 3 12 13 12 24 0 10 2 19 5 19 2 0 4 -18 2 -40z
m110 15 c-7 -13 -14 -20 -15 -14 -2 5 2 16 8 24 18 21 20 18 7 -10z m1106 -10
c-3 -9 -8 -14 -10 -11 -3 3 -2 9 2 15 9 16 15 13 8 -4z m137 -6 c0 -5 -4 -7
-10 -4 -5 3 -10 1 -10 -4 0 -6 5 -11 10 -11 6 0 10 -10 10 -22 -1 -26 -24 -61
-34 -51 -3 4 -19 -3 -35 -15 -39 -29 -45 -18 -10 21 16 17 29 38 29 46 0 16
28 51 42 51 4 0 8 -5 8 -11z m455 -29 c-16 -11 -34 -20 -40 -20 -5 0 4 9 20
20 17 11 35 20 40 20 6 0 -3 -9 -20 -20z m-1705 0 c0 -5 -4 -10 -10 -10 -5 0
-10 5 -10 10 0 6 5 10 10 10 6 0 10 -4 10 -10z m165 -36 c-16 -25 -18 -25 -27
-10 -7 12 -6 22 1 29 8 8 11 6 12 -8 0 -18 1 -18 11 3 6 12 13 20 16 17 3 -2
-3 -16 -13 -31z m223 16 c-7 -10 -14 -17 -17 -15 -4 4 18 35 25 35 2 0 -1 -9
-8 -20z m320 0 c-7 -10 -14 -17 -17 -15 -4 4 18 35 25 35 2 0 -1 -9 -8 -20z
m69 -7 c-9 -2 -14 -9 -11 -15 4 -7 2 -8 -4 -4 -7 4 -12 3 -12 -2 0 -6 -11 -20
-25 -33 -13 -13 -25 -30 -25 -36 0 -7 -4 -13 -10 -13 -5 0 -10 4 -10 9 0 6 5
13 10 16 6 3 10 15 10 26 0 11 4 18 10 14 5 -3 17 6 26 20 10 15 25 25 38 24
17 -1 17 -2 3 -6z m-299 -23 c-7 -10 -14 -17 -17 -15 -4 4 18 35 25 35 2 0 -1
-9 -8 -20z m528 8 c4 -6 3 -8 -4 -4 -6 3 -13 2 -17 -4 -7 -11 -45 -33 -45 -26
0 8 43 46 51 46 4 0 11 -5 15 -12z m-1085 -64 c-12 -9 -19 -20 -15 -25 3 -5 0
-8 -7 -7 -7 2 -17 -12 -22 -29 -5 -18 -14 -33 -19 -33 -6 0 -7 14 -2 33 7 33
76 104 83 85 2 -5 -6 -16 -18 -24z m1604 -13 c29 -6 13 -8 -61 -7 -56 1 -97 4
-90 8 14 10 100 9 151 -1z m-832 -38 c-3 -7 -6 -13 -8 -13 -2 0 -5 6 -8 13 -3
8 1 14 8 14 7 0 11 -6 8 -14z m-169 -24 c-16 -17 -28 -39 -26 -50 2 -10 -2
-19 -9 -19 -12 0 -8 -86 6 -122 4 -10 3 -18 -2 -18 -5 0 -15 27 -22 59 -16 74
-4 119 42 156 43 33 47 31 11 -6z m137 -10 c-5 -13 -10 -19 -10 -12 -1 15 10
45 15 40 3 -2 0 -15 -5 -28z m734 -8 c-6 -5 -28 -14 -50 -21 -42 -13 -114 -51
-154 -82 -13 -10 -28 -18 -34 -18 -12 0 90 73 136 96 53 28 123 45 102 25z
m-1535 -20 c0 -5 -7 -11 -15 -15 -9 -3 -15 0 -15 9 0 8 7 15 15 15 8 0 15 -4
15 -9z m52 -43 c-7 -7 -12 -8 -12 -2 0 14 12 26 19 19 2 -3 -1 -11 -7 -17z
m174 -18 c0 -17 -15 -40 -27 -40 -5 0 -4 11 1 25 15 39 0 30 -63 -37 l-58 -63
35 55 c36 55 69 82 96 77 8 -1 15 -9 16 -17z m239 0 c-3 -5 -1 -10 6 -10 28 0
-8 -16 -44 -19 -5 -1 -6 -5 -3 -10 7 -11 -32 -47 -41 -38 -4 4 2 14 13 23 10
8 12 12 4 8 -19 -9 -5 5 34 34 31 24 41 27 31 12z m1236 -30 c-21 -22 -48 -40
-58 -40 -11 0 -46 -13 -78 -29 -45 -23 -53 -25 -38 -9 15 14 195 116 210 118
2 0 -14 -18 -36 -40z m-1657 0 c-6 -6 -10 -3 -10 10 0 13 4 16 10 10 7 -7 7
-13 0 -20z m1550 20 c-23 -5 -73 -24 -112 -44 -43 -22 -90 -37 -123 -40 l-54
-5 50 13 c28 7 82 27 120 43 94 41 96 41 130 41 25 0 23 -2 -11 -8z m-514 -4
c0 -2 -8 -10 -17 -17 -16 -13 -17 -12 -4 4 13 16 21 21 21 13z m-1090 -41 c-7
-9 -15 -13 -18 -10 -3 2 1 11 8 20 7 9 15 13 18 10 3 -2 -1 -11 -8 -20z m1912
9 c-12 -8 -30 -14 -40 -11 -14 3 -12 6 8 15 39 17 58 15 32 -4z m-1902 -38 c0
-3 -4 -8 -10 -11 -5 -3 -10 -1 -10 4 0 6 5 11 10 11 6 0 10 -2 10 -4z m1259 0
c-2 -2 -29 -6 -59 -9 -34 -3 -47 -2 -35 3 19 8 103 14 94 6z m-1265 -73 c-25
-19 -31 -16 -42 16 -13 38 3 45 36 17 21 -19 22 -21 6 -33z m385 -2 c-3 -6
-10 -7 -18 -2 -7 5 -10 14 -6 21 9 14 29 -2 24 -19z m265 4 c4 -14 2 -33 -3
-42 -6 -11 -5 -23 3 -35 9 -16 8 -22 -6 -32 -10 -7 -18 -16 -18 -20 0 -4 -7
-14 -15 -22 -21 -22 -20 -2 6 76 11 35 18 71 16 82 -3 10 -2 18 3 18 4 0 11
-11 14 -25z m173 9 c-3 -3 -12 -4 -19 -1 -8 3 -5 6 6 6 11 1 17 -2 13 -5z
m232 -8 c-2 -2 -15 -9 -29 -15 -24 -11 -24 -11 -6 3 16 13 49 24 35 12z m803
-8 c-11 -11 -163 -40 -171 -32 -8 7 51 24 87 25 20 1 48 5 62 9 35 11 35 11
22 -2z m-1465 -18 c13 0 13 -3 3 -15 -7 -9 -10 -18 -7 -21 3 -4 0 -12 -6 -19
-9 -10 -14 -6 -24 17 -17 40 -16 51 3 44 9 -3 23 -6 31 -6z m153 6 c0 -2 -7
-7 -16 -10 -8 -3 -12 -2 -9 4 6 10 25 14 25 6z m-57 -43 c-10 -10 -23 -25 -30
-33 -8 -10 -12 -11 -13 -3 0 14 39 53 53 53 4 0 0 -8 -10 -17z m897 -3 c0 -5
-10 -10 -22 -11 -22 0 -22 -1 2 -11 14 -5 54 -8 90 -5 41 4 57 2 44 -3 -12 -5
-63 -11 -113 -14 -94 -6 -127 -17 -191 -64 l-35 -26 29 39 c16 21 24 35 18 31
-7 -4 -12 -5 -12 -2 0 11 103 53 188 75 1 1 2 -3 2 -9z m-277 -21 c-34 -10
-85 -35 -115 -54 l-53 -35 39 35 c41 37 125 74 166 74 14 0 -2 -9 -37 -20z
m-566 -41 c-3 -8 -6 -5 -6 6 -1 11 2 17 5 13 3 -3 4 -12 1 -19z m-459 -18
c-20 -11 -40 -24 -43 -30 -7 -12 -25 -13 -25 -2 0 11 71 52 90 51 8 0 -2 -9
-22 -19z"/>
<path d="M3430 4060 c-1 -3 -4 -15 -5 -28 -1 -15 1 -20 7 -14 6 6 8 18 5 28
-3 11 -6 17 -7 14z"/>
<path d="M3300 3950 c0 -5 5 -10 10 -10 6 0 10 5 10 10 0 6 -4 10 -10 10 -5 0
-10 -4 -10 -10z"/>
<path d="M1667 3144 c-4 -4 -4 -10 -1 -15 6 -10 34 0 34 12 0 10 -24 12 -33 3z"/>
<path d="M1830 3135 c0 -5 5 -17 10 -25 5 -8 10 -10 10 -5 0 6 -5 17 -10 25
-5 8 -10 11 -10 5z"/>
<path d="M2060 3091 c0 -18 18 -21 30 -6 10 13 9 15 -9 15 -11 0 -21 -4 -21
-9z"/>
<path d="M1935 2760 c4 -6 11 -8 16 -5 14 9 11 15 -7 15 -8 0 -12 -5 -9 -10z"/>
<path d="M525 2560 c-4 -6 1 -11 9 -11 9 -1 24 -2 33 -3 9 0 18 4 20 9 4 13
-54 17 -62 5z"/>
<path d="M3380 1630 c0 -5 5 -10 10 -10 6 0 10 5 10 10 0 6 -4 10 -10 10 -5 0
-10 -4 -10 -10z"/>
<path d="M3217 1473 c-4 -3 -7 -11 -7 -17 0 -6 5 -5 12 2 6 6 9 14 7 17 -3 3
-9 2 -12 -2z"/>
<path d="M2341 4824 c0 -11 3 -14 6 -6 3 7 2 16 -1 19 -3 4 -6 -2 -5 -13z"/>
<path d="M2580 4804 c0 -10 5 -26 10 -34 7 -11 8 -8 6 13 -3 32 -16 49 -16 21z"/>
<path d="M1735 4769 c0 -17 5 -29 13 -29 6 0 12 -5 12 -11 0 -5 -6 -7 -12 -3
-8 5 -8 1 2 -12 8 -10 15 -20 16 -22 1 -2 2 9 2 23 0 14 -4 28 -9 31 -5 3 -9
14 -9 24 0 10 -3 21 -7 23 -5 3 -8 -8 -8 -24z"/>
<path d="M2690 4791 c0 -6 5 -11 11 -11 6 0 9 -6 6 -13 -3 -8 -1 -20 4 -28 7
-10 9 -4 7 20 -3 31 -28 59 -28 32z"/>
<path d="M2629 4773 c-13 -16 -12 -17 4 -4 16 13 21 21 13 21 -2 0 -10 -8 -17
-17z"/>
<path d="M0 4686 l0 -94 35 -4 c41 -5 49 0 34 18 -7 8 -7 14 1 19 18 11 11 27
-10 20 -21 -7 -23 -3 -14 33 4 14 14 22 27 22 19 0 19 1 3 19 -16 18 -16 19
10 25 17 5 35 1 50 -9 21 -14 24 -14 24 0 0 8 -12 18 -27 21 -16 4 -32 9 -38
12 -5 4 -29 7 -52 9 l-43 2 0 -93z"/>
<path d="M1705 4770 c-3 -5 1 -10 10 -10 9 0 13 5 10 10 -3 6 -8 10 -10 10 -2
0 -7 -4 -10 -10z"/>
<path d="M1943 4765 c-26 -11 -30 -17 -25 -37 5 -18 7 -19 10 -5 2 9 10 17 19
17 9 0 13 -6 10 -14 -3 -8 1 -20 9 -26 10 -9 14 -9 14 -1 0 6 -4 11 -9 11 -5
0 -5 15 -1 35 4 19 7 35 6 35 0 -1 -15 -7 -33 -15z"/>
<path d="M2367 4764 c-3 -3 6 -16 20 -30 32 -33 38 -27 8 8 -13 15 -25 24 -28
22z"/>
<path d="M1812 4713 c2 -29 6 -53 11 -53 11 0 8 73 -3 90 -7 11 -10 0 -8 -37z"/>
<path d="M2765 4739 c-4 -6 -5 -12 -2 -15 2 -3 7 2 10 11 7 17 1 20 -8 4z"/>
<path d="M1781 4719 c-1 -9 7 -23 17 -30 15 -12 16 -12 6 1 -6 8 -14 22 -17
30 -5 13 -6 12 -6 -1z"/>
<path d="M2630 4726 c0 -2 8 -10 18 -17 15 -13 16 -12 3 4 -13 16 -21 21 -21
13z"/>
<path d="M2519 4631 c30 -28 57 -49 59 -46 5 5 -12 21 -68 63 -42 32 -41 30 9
-17z"/>
<path d="M1776 4637 c3 -10 9 -15 12 -12 3 3 0 11 -7 18 -10 9 -11 8 -5 -6z"/>
<path d="M1962 4641 c-10 -6 -7 -10 12 -13 18 -4 26 -1 26 8 0 16 -18 18 -38
5z"/>
<path d="M3060 4640 c-13 -8 -12 -10 3 -10 12 0 16 -5 11 -12 -6 -10 -4 -10 7
0 17 16 0 35 -21 22z"/>
<path d="M2030 4619 c0 -12 29 -38 43 -39 14 0 6 15 -18 33 -16 11 -25 14 -25
6z"/>
<path d="M1955 4611 c-7 -12 12 -24 25 -16 11 7 4 25 -10 25 -5 0 -11 -4 -15
-9z"/>
<path d="M1931 4580 c-1 -8 -4 -26 -7 -40 -5 -19 -4 -22 5 -14 7 6 11 24 8 40
-2 16 -5 22 -6 14z"/>
<path d="M2100 4583 c8 -3 19 -11 23 -17 6 -7 7 -6 4 4 -2 8 -12 16 -23 17
-13 2 -15 1 -4 -4z"/>
<path d="M3 4565 c-3 -9 -3 -19 1 -22 3 -4 6 -1 6 5 0 7 7 12 16 12 8 0 12 5
9 10 -9 15 -25 12 -32 -5z"/>
<path d="M1563 4555 c0 -8 4 -12 9 -9 5 3 6 10 3 15 -9 13 -12 11 -12 -6z"/>
<path d="M1967 4530 c-18 -22 -24 -65 -7 -55 6 4 8 11 4 16 -3 6 2 19 12 30 9
10 15 21 13 24 -3 2 -13 -5 -22 -15z"/>
<path d="M20 4532 c0 -7 -4 -10 -10 -7 -6 4 -10 -12 -10 -39 0 -25 2 -46 5
-46 2 0 11 15 20 34 12 26 14 39 6 53 -6 11 -11 13 -11 5z"/>
<path d="M2130 4516 c0 -2 7 -7 16 -10 8 -3 12 -2 9 4 -6 10 -25 14 -25 6z"/>
<path d="M1926 4468 c8 -59 17 -88 26 -88 6 0 8 -7 5 -15 -4 -8 -1 -17 5 -21
7 -4 8 7 3 37 -4 24 -7 52 -7 61 1 10 -5 15 -13 12 -8 -4 -15 3 -18 18 -2 13
-3 11 -1 -4z"/>
<path d="M2274 4489 c-4 -7 -3 -9 3 -6 6 4 16 0 23 -8 7 -8 24 -15 39 -14 26
1 26 1 -4 11 -16 6 -35 15 -42 20 -7 6 -14 5 -19 -3z"/>
<path d="M2198 4467 c3 -12 8 -15 15 -8 6 6 14 5 24 -5 8 -8 19 -14 24 -14 15
0 10 17 -7 24 -8 3 -13 9 -11 13 3 5 -7 8 -22 8 -22 1 -27 -3 -23 -18z"/>
<path d="M1984 4465 c-10 -26 1 -35 13 -10 6 14 7 25 2 25 -5 0 -12 -7 -15
-15z"/>
<path d="M2887 4463 c-4 -3 -7 -11 -7 -17 0 -6 5 -5 12 2 6 6 9 14 7 17 -3 3
-9 2 -12 -2z"/>
<path d="M1620 4449 c0 -5 5 -7 10 -4 6 3 10 8 10 11 0 2 -4 4 -10 4 -5 0 -10
-5 -10 -11z"/>
<path d="M1885 4447 c-4 -10 -5 -21 -1 -24 10 -10 18 4 13 24 -4 17 -4 17 -12
0z"/>
<path d="M40 4430 c0 -23 25 -27 33 -6 7 16 -1 26 -20 26 -7 0 -13 -9 -13 -20z"/>
<path d="M1601 4393 c-1 -6 -4 -20 -7 -30 -5 -17 -5 -17 6 0 6 10 9 23 6 30
-3 9 -5 9 -5 0z"/>
<path d="M1992 4350 c0 -19 2 -27 5 -17 2 9 2 25 0 35 -3 9 -5 1 -5 -18z"/>
<path d="M1781 4361 c-8 -5 -9 -11 -3 -15 5 -3 15 1 22 9 14 16 3 20 -19 6z"/>
<path d="M2407 4359 c7 -7 15 -10 18 -7 3 3 -2 9 -12 12 -14 6 -15 5 -6 -5z"/>
<path d="M1690 4345 c-10 -12 -10 -15 3 -15 19 0 31 16 18 24 -5 3 -14 -1 -21
-9z"/>
<path d="M1577 4333 c-2 -5 -1 -19 4 -33 7 -23 7 -23 8 8 1 31 -3 40 -12 25z"/>
<path d="M1966 4319 c3 -6 0 -15 -7 -20 -11 -7 -9 -9 6 -9 12 0 16 -3 8 -8 -8
-5 -5 -14 9 -31 l19 -25 -6 27 c-5 17 -2 33 5 42 10 12 9 15 -4 15 -9 0 -16 5
-16 10 0 6 -5 10 -11 10 -5 0 -7 -5 -3 -11z"/>
<path d="M2115 4320 c-3 -6 1 -7 9 -4 18 7 21 14 7 14 -6 0 -13 -4 -16 -10z"/>
<path d="M2158 4323 c7 -3 16 -2 19 1 4 3 -2 6 -13 5 -11 0 -14 -3 -6 -6z"/>
<path d="M10 4281 c-7 -23 -9 -47 -4 -62 7 -20 9 -13 15 36 4 33 6 61 5 63 -2
1 -9 -15 -16 -37z"/>
<path d="M1750 4298 c0 -17 3 -19 9 -10 4 8 11 13 15 13 22 -3 28 2 11 9 -31
13 -35 12 -35 -12z"/>
<path d="M2477 4265 c3 -8 9 -12 14 -9 12 7 11 11 -5 17 -10 4 -13 1 -9 -8z"/>
<path d="M1470 4250 c0 -5 5 -10 11 -10 5 0 7 5 4 10 -3 6 -8 10 -11 10 -2 0
-4 -4 -4 -10z"/>
<path d="M1825 4239 c-4 -6 -5 -12 -2 -15 2 -3 7 2 10 11 7 17 1 20 -8 4z"/>
<path d="M1536 4221 c-3 -5 1 -11 9 -15 8 -3 15 -1 15 4 0 13 -18 22 -24 11z"/>
<path d="M1770 4201 c0 -6 4 -12 8 -15 5 -3 9 1 9 9 0 8 -4 15 -9 15 -4 0 -8
-4 -8 -9z"/>
<path d="M1815 4200 c-3 -5 -3 -10 1 -10 4 0 -3 -12 -17 -27 l-24 -27 25 16
c14 8 26 25 26 37 1 23 -2 26 -11 11z"/>
<path d="M1036 4147 c3 -10 9 -15 12 -12 3 3 0 11 -7 18 -10 9 -11 8 -5 -6z"/>
<path d="M1172 4065 c0 -16 2 -22 5 -12 2 9 2 23 0 30 -3 6 -5 -1 -5 -18z"/>
<path d="M1157 4016 c-9 -7 -17 -22 -16 -32 0 -14 2 -15 6 -4 3 8 12 21 21 27
21 17 11 25 -11 9z"/>
<path d="M1375 3948 c-8 -21 0 -48 15 -48 12 0 12 17 0 45 -7 18 -8 19 -15 3z"/>
<path d="M1084 3924 c2 -16 7 -38 13 -49 6 -11 13 -32 17 -47 3 -16 10 -28 15
-28 9 0 -21 107 -38 138 -7 12 -8 8 -7 -14z"/>
<path d="M142 3840 c0 -19 2 -27 5 -17 2 9 2 25 0 35 -3 9 -5 1 -5 -18z"/>
<path d="M1466 3827 c3 -10 9 -15 12 -12 3 3 0 11 -7 18 -10 9 -11 8 -5 -6z"/>
<path d="M1060 3823 c0 -12 38 -48 44 -42 3 2 -6 15 -20 28 -13 13 -24 19 -24
14z"/>
<path d="M12 3790 c0 -14 2 -19 5 -12 2 6 2 18 0 25 -3 6 -5 1 -5 -13z"/>
<path d="M141 3664 c0 -11 3 -14 6 -6 3 7 2 16 -1 19 -3 4 -6 -2 -5 -13z"/>
<path d="M1041 3597 c2 -1 14 -11 27 -22 17 -14 23 -16 20 -5 -4 18 -18 30
-37 30 -8 0 -12 -1 -10 -3z"/>
<path d="M845 3480 c-3 -5 -1 -10 4 -10 6 0 11 5 11 10 0 6 -2 10 -4 10 -3 0
-8 -4 -11 -10z"/>
<path d="M26 3347 c3 -10 9 -15 12 -12 3 3 0 11 -7 18 -10 9 -11 8 -5 -6z"/>
<path d="M3 3325 c0 -8 7 -15 15 -15 12 0 12 3 2 15 -7 8 -13 15 -15 15 -1 0
-2 -7 -2 -15z"/>
<path d="M1 3244 c0 -11 3 -14 6 -6 3 7 2 16 -1 19 -3 4 -6 -2 -5 -13z"/>
<path d="M80 3219 c0 -5 5 -7 10 -4 6 3 10 8 10 11 0 2 -4 4 -10 4 -5 0 -10
-5 -10 -11z"/>
<path d="M3 3160 c0 -30 2 -43 4 -27 2 15 2 39 0 55 -2 15 -4 2 -4 -28z"/>
<path d="M31 3094 c0 -11 3 -14 6 -6 3 7 2 16 -1 19 -3 4 -6 -2 -5 -13z"/>
<path d="M11 3039 c-6 -18 -11 -41 -10 -53 0 -12 7 1 14 29 16 56 13 72 -4 24z"/>
<path d="M3640 2159 l-35 -20 35 7 c40 7 43 9 39 23 -2 5 -20 1 -39 -10z"/>
<path d="M2940 2132 c0 -4 10 -9 22 -9 18 -2 20 0 8 7 -18 12 -30 13 -30 2z"/>
<path d="M3520 2090 c-9 -6 -10 -10 -3 -10 6 0 15 5 18 10 8 12 4 12 -15 0z"/>
<path d="M3560 2070 c-8 -5 -11 -12 -7 -16 4 -4 13 -2 19 4 15 15 7 24 -12 12z"/>
<path d="M3350 2038 c-49 -13 -64 -30 -20 -22 19 4 51 13 70 20 30 11 31 13
10 12 -14 0 -41 -4 -60 -10z"/>
<path d="M3579 1998 c-1 -13 -1 -26 0 -31 1 -4 -10 -12 -24 -17 -25 -9 -35
-30 -14 -30 6 0 8 -8 4 -19 -7 -23 14 -39 25 -20 7 10 17 4 43 -24 54 -59 67
-51 67 39 0 41 -4 73 -8 70 -5 -3 -24 8 -43 24 -41 35 -49 37 -50 8z"/>
<path d="M3385 1936 c-39 -28 -83 -64 -100 -81 -21 -21 -39 -30 -60 -29 -31 1
-47 -5 -79 -29 -17 -12 -14 -14 33 -13 40 1 52 5 57 19 4 14 9 16 20 6 11 -9
15 -8 20 5 3 9 10 13 15 10 5 -3 9 0 9 5 0 6 7 11 16 11 8 0 12 5 9 10 -3 6 3
10 15 10 12 0 18 5 15 10 -8 13 8 13 21 0 7 -7 17 -4 30 11 10 12 18 24 16 27
-1 3 9 8 24 9 21 3 25 1 21 -11 -12 -31 24 -13 41 21 14 25 -2 36 -30 21 -13
-6 -16 -5 -12 6 3 8 15 16 27 18 18 3 16 5 -8 9 -25 4 -43 -4 -100 -45z"/>
<path d="M3304 1931 c-46 -28 -49 -40 -7 -26 20 7 38 20 39 29 3 20 5 20 -32
-3z"/>
<path d="M3575 1850 c-16 -7 -17 -9 -3 -9 9 -1 20 4 23 9 7 11 7 11 -20 0z"/>
<path d="M576 1041 c-32 -14 -36 -19 -22 -24 10 -4 15 -3 11 3 -3 6 0 10 7 10
8 0 23 7 34 15 24 18 18 18 -30 -4z"/>
<path d="M528 1003 c7 -3 16 -2 19 1 4 3 -2 6 -13 5 -11 0 -14 -3 -6 -6z"/>
<path d="M260 960 c0 -3 -9 -6 -19 -7 -28 -2 -121 -44 -121 -54 0 -13 20 -11
76 8 75 25 120 60 79 60 -8 0 -15 -3 -15 -7z"/>
<path d="M388 922 c-16 -2 -28 -10 -28 -18 0 -19 34 -18 50 1 16 19 13 21 -22
17z"/>
<path d="M540 910 c0 -5 5 -10 10 -10 6 0 10 5 10 10 0 6 -4 10 -10 10 -5 0
-10 -4 -10 -10z"/>
<path d="M54 571 c-32 -19 -52 -41 -38 -41 12 0 74 44 74 53 0 10 -1 9 -36
-12z"/>
<path d="M70 510 c0 -5 5 -10 11 -10 5 0 7 5 4 10 -3 6 -8 10 -11 10 -2 0 -4
-4 -4 -10z"/>
</g>
</svg>
